<?xml version="1.0" encoding="UTF-8"?>
<!DOCTYPE svg PUBLIC "-//W3C//DTD SVG 1.1//EN" "http://www.w3.org/Graphics/SVG/1.1/DTD/svg11.dtd">
<svg version="1.1" xmlns="http://www.w3.org/2000/svg" xmlns:xlink="http://www.w3.org/1999/xlink" x="0" y="0" width="640" height="550" viewBox="0, 0, 640, 550">
  <g id="Layer_1">
    <path d="M835.521,150.857 C835.521,172.68 857.021,190.385 883.521,190.385 L1235.521,190.385 C1262.021,190.385 1283.521,172.68 1283.521,150.857 L1283.521,-73.136 L835.521,-73.136 L835.521,150.857 z M1155.521,-10.549 C1155.521,-15.985 1160.921,-20.431 1167.521,-20.431 L1207.521,-20.431 C1214.121,-20.431 1219.521,-15.985 1219.521,-10.549 L1219.521,22.391 C1219.521,27.826 1214.121,32.273 1207.521,32.273 L1167.521,32.273 C1160.921,32.273 1155.521,27.826 1155.521,22.391 L1155.521,-10.549 z M1155.521,94.859 C1155.521,89.424 1160.921,84.977 1167.521,84.977 L1207.521,84.977 C1214.121,84.977 1219.521,89.424 1219.521,94.859 L1219.521,127.799 C1219.521,133.234 1214.121,137.681 1207.521,137.681 L1167.521,137.681 C1160.921,137.681 1155.521,133.234 1155.521,127.799 L1155.521,94.859 z M1027.521,-10.549 C1027.521,-15.985 1032.921,-20.431 1039.521,-20.431 L1079.521,-20.431 C1086.121,-20.431 1091.521,-15.985 1091.521,-10.549 L1091.521,22.391 C1091.521,27.826 1086.121,32.273 1079.521,32.273 L1039.521,32.273 C1032.921,32.273 1027.521,27.826 1027.521,22.391 L1027.521,-10.549 z M1027.521,94.859 C1027.521,89.424 1032.921,84.977 1039.521,84.977 L1079.521,84.977 C1086.121,84.977 1091.521,89.424 1091.521,94.859 L1091.521,127.799 C1091.521,133.234 1086.121,137.681 1079.521,137.681 L1039.521,137.681 C1032.921,137.681 1027.521,133.234 1027.521,127.799 L1027.521,94.859 z M899.521,-10.549 C899.521,-15.985 904.921,-20.431 911.521,-20.431 L951.521,-20.431 C958.121,-20.431 963.521,-15.985 963.521,-10.549 L963.521,22.391 C963.521,27.826 958.121,32.273 951.521,32.273 L911.521,32.273 C904.921,32.273 899.521,27.826 899.521,22.391 L899.521,-10.549 z M899.521,94.859 C899.521,89.424 904.921,84.977 911.521,84.977 L951.521,84.977 C958.121,84.977 963.521,89.424 963.521,94.859 L963.521,127.799 C963.521,133.234 958.121,137.681 951.521,137.681 L911.521,137.681 C904.921,137.681 899.521,133.234 899.521,127.799 L899.521,94.859 z M1235.521,-178.544 L1187.521,-178.544 L1187.521,-218.072 C1187.521,-225.319 1180.321,-231.248 1171.521,-231.248 L1139.521,-231.248 C1130.721,-231.248 1123.521,-225.319 1123.521,-218.072 L1123.521,-178.544 L995.521,-178.544 L995.521,-218.072 C995.521,-225.319 988.321,-231.248 979.521,-231.248 L947.521,-231.248 C938.721,-231.248 931.521,-225.319 931.521,-218.072 L931.521,-178.544 L883.521,-178.544 C857.021,-178.544 835.521,-160.838 835.521,-139.016 L835.521,-99.488 L1283.521,-99.488 L1283.521,-139.016 C1283.521,-160.838 1262.021,-178.544 1235.521,-178.544 z" fill="#000000" id="calendar-alt-solid"/>
    <g>
      <path d="M72.5,132.5 L72.5,105.5 C72.5,80.647 92.528,60.5 117.234,60.5 L442.299,60.5 L531.766,60.5 C556.472,60.5 576.5,80.647 576.5,105.5 L576.5,132.5 L72.5,132.5" fill="#DD8989"/>
      <path d="M72.5,132.5 L72.5,105.5 C72.5,80.647 92.528,60.5 117.234,60.5 L442.299,60.5 L531.766,60.5 C556.472,60.5 576.5,80.647 576.5,105.5 L576.5,132.5 L72.5,132.5" fill-opacity="0" stroke="#000000" stroke-width="6"/>
    </g>
    <g>
      <path d="M576.5,132.5 L576.5,376.5 C576.5,400.801 556.57,420.5 531.985,420.5 L398.44,420.5 L117.77,420.5 C92.768,420.5 72.5,400.353 72.5,375.5 L72.5,132.5" fill="#C3C3C3"/>
      <path d="M576.5,132.5 L576.5,376.5 C576.5,400.801 556.57,420.5 531.985,420.5 L398.44,420.5 L117.77,420.5 C92.768,420.5 72.5,400.353 72.5,375.5 L72.5,132.5" fill-opacity="0" stroke="#000000" stroke-width="6"/>
    </g>
    <path d="M279,220.385 C270.716,220.385 264,213.669 264,205.385 C264,197.101 270.716,190.385 279,190.385 C287.284,190.385 294,197.101 294,205.385 C294,213.669 287.284,220.385 279,220.385 z" fill="#303030"/>
    <path d="M339,220.385 C330.716,220.385 324,213.669 324,205.385 C324,197.101 330.716,190.385 339,190.385 C347.284,190.385 354,197.101 354,205.385 C354,213.669 347.284,220.385 339,220.385 z" fill="#303030"/>
    <path d="M399,220.385 C390.716,220.385 384,213.669 384,205.385 C384,197.101 390.716,190.385 399,190.385 C407.284,190.385 414,197.101 414,205.385 C414,213.669 407.284,220.385 399,220.385 z" fill="#303030"/>
    <path d="M459,220.385 C450.716,220.385 444,213.669 444,205.385 C444,197.101 450.716,190.385 459,190.385 C467.284,190.385 474,197.101 474,205.385 C474,213.669 467.284,220.385 459,220.385 z" fill="#303030"/>
    <path d="M279,282 C270.716,282 264,275.284 264,267 C264,258.716 270.716,252 279,252 C287.284,252 294,258.716 294,267 C294,275.284 287.284,282 279,282 z" fill="#303030"/>
    <path d="M339,282 C330.716,282 324,275.284 324,267 C324,258.716 330.716,252 339,252 C347.284,252 354,258.716 354,267 C354,275.284 347.284,282 339,282 z" fill="#039FE0"/>
    <path d="M399,282 C390.716,282 384,275.284 384,267 C384,258.716 390.716,252 399,252 C407.284,252 414,258.716 414,267 C414,275.284 407.284,282 399,282 z" fill="#303030"/>
    <path d="M459,282 C450.716,282 444,275.284 444,267 C444,258.716 450.716,252 459,252 C467.284,252 474,258.716 474,267 C474,275.284 467.284,282 459,282 z" fill="#303030"/>
    <path d="M159,282 C150.716,282 144,275.284 144,267 C144,258.716 150.716,252 159,252 C167.284,252 174,258.716 174,267 C174,275.284 167.284,282 159,282 z" fill="#303030"/>
    <path d="M219,282 C210.716,282 204,275.284 204,267 C204,258.716 210.716,252 219,252 C227.284,252 234,258.716 234,267 C234,275.284 227.284,282 219,282 z" fill="#303030"/>
    <path d="M279,342 C270.716,342 264,335.284 264,327 C264,318.716 270.716,312 279,312 C287.284,312 294,318.716 294,327 C294,335.284 287.284,342 279,342 z" fill="#303030"/>
    <path d="M339,342 C330.716,342 324,335.284 324,327 C324,318.716 330.716,312 339,312 C347.284,312 354,318.716 354,327 C354,335.284 347.284,342 339,342 z" fill="#303030"/>
    <path d="M159,342 C150.716,342 144,335.284 144,327 C144,318.716 150.716,312 159,312 C167.284,312 174,318.716 174,327 C174,335.284 167.284,342 159,342 z" fill="#303030"/>
    <path d="M219,342 C210.716,342 204,335.284 204,327 C204,318.716 210.716,312 219,312 C227.284,312 234,318.716 234,327 C234,335.284 227.284,342 219,342 z" fill="#303030"/>
    <path d="M216.5,48.5 L216.5,72.5" fill-opacity="0" stroke="#000000" stroke-width="6" stroke-linecap="round"/>
    <path d="M288.5,48.5 L288.5,72.5" fill-opacity="0" stroke="#000000" stroke-width="6" stroke-linecap="round"/>
    <path d="M360.5,48.5 L360.5,72.5" fill-opacity="0" stroke="#000000" stroke-width="6" stroke-linecap="round"/>
    <path d="M432.5,48.5 L432.5,72.5" fill-opacity="0" stroke="#000000" stroke-width="6" stroke-linecap="round"/>
    <g>
      <path d="M524.439,466.986 C483.267,466.986 449.891,433.61 449.891,392.439 C449.891,351.267 483.267,317.891 524.439,317.891 C565.61,317.891 598.986,351.267 598.986,392.439 C598.986,433.61 565.61,466.986 524.439,466.986 z" fill="#E3DCDC"/>
      <path d="M524.439,300 C575.503,300 616.877,341.374 616.877,392.439 C616.877,443.503 575.503,484.877 524.439,484.877 C473.374,484.877 432,443.503 432,392.439 C432,341.374 473.374,300 524.439,300 z M524.439,466.986 C565.626,466.986 598.986,433.626 598.986,392.439 C598.986,351.251 565.626,317.891 524.439,317.891 C483.251,317.891 449.891,351.251 449.891,392.439 C449.891,433.626 483.251,466.986 524.439,466.986 z M501.403,428.072 L533.049,405.074 C534.204,404.217 534.875,402.875 534.875,401.459 L534.875,340.255 C534.875,337.795 532.862,335.783 530.402,335.783 L518.475,335.783 C516.015,335.783 514.002,337.795 514.002,340.255 L514.002,393.072 L489.103,411.187 C487.09,412.641 486.68,415.436 488.134,417.449 L495.141,427.103 C496.595,429.078 499.391,429.526 501.403,428.072 z" fill="#000000" id="clock-regular"/>
    </g>
  </g>
</svg>
