<?xml version="1.0" encoding="UTF-8"?>
<!DOCTYPE svg PUBLIC "-//W3C//DTD SVG 1.1//EN" "http://www.w3.org/Graphics/SVG/1.1/DTD/svg11.dtd">
<svg version="1.1" xmlns="http://www.w3.org/2000/svg" xmlns:xlink="http://www.w3.org/1999/xlink" x="0" y="0" width="804" height="804" viewBox="0, 0, 804, 804">
  <g id="Layer_1">
    <g>
      <path d="M402,802 C181.086,802 2,622.914 2,402 C2,181.086 181.086,2 402,2 C622.914,2 802,181.086 802,402 C802,622.914 622.914,802 402,802 z" fill="#FFFFFF"/>
      <path d="M402,2 C622.914,2 802,181.086 802,402 C802,622.914 622.914,802 402,802 C181.086,802 2,622.914 2,402 C2,181.086 181.086,2 402,2 z M402,6 C183.295,6 6,183.295 6,402 C6,620.705 183.295,798 402,798 C620.705,798 798,620.705 798,402 C798,183.295 620.705,6 402,6 z" fill="#00A3DA"/>
    </g>
    <path d="M1774.517,709.153 L1674.041,709.153 L1740.956,776.067 C1743.513,778.625 1747.722,778.832 1750.352,776.355 C1766.738,760.917 1778.01,740.105 1781.317,716.711 C1781.884,712.705 1778.56,709.153 1774.517,709.153 z M1767.814,681.715 C1764.325,631.132 1723.904,590.711 1673.322,587.222 C1669.46,586.956 1666.208,590.212 1666.208,594.082 L1666.208,688.828 L1760.958,688.828 C1764.828,688.828 1768.08,685.576 1767.814,681.715 z M1645.883,709.153 L1645.883,608.678 C1645.883,604.634 1642.331,601.31 1638.329,601.877 C1587.87,609.008 1549.299,653.091 1551.095,705.922 C1552.941,760.18 1599.658,804.674 1653.941,803.992 C1675.282,803.726 1695.001,796.849 1711.214,785.349 C1714.559,782.978 1714.779,778.053 1711.879,775.153 L1645.883,709.153 z" fill="#000000" id="chart-pie-solid"/>
    <path d="M1325.053,1303.02 C1360.353,1303.02 1389.053,1274.32 1389.053,1239.02 C1389.053,1203.72 1360.353,1175.02 1325.053,1175.02 C1289.753,1175.02 1261.053,1203.72 1261.053,1239.02 C1261.053,1274.32 1289.753,1303.02 1325.053,1303.02 z M1773.053,1303.02 C1808.353,1303.02 1837.053,1274.32 1837.053,1239.02 C1837.053,1203.72 1808.353,1175.02 1773.053,1175.02 C1737.753,1175.02 1709.053,1203.72 1709.053,1239.02 C1709.053,1274.32 1737.753,1303.02 1773.053,1303.02 z M1805.053,1335.02 L1741.053,1335.02 C1723.453,1335.02 1707.553,1342.12 1695.953,1353.62 C1736.253,1375.72 1764.853,1415.62 1771.053,1463.02 L1837.053,1463.02 C1854.753,1463.02 1869.053,1448.72 1869.053,1431.02 L1869.053,1399.02 C1869.053,1363.72 1840.353,1335.02 1805.053,1335.02 z M1549.053,1335.02 C1610.953,1335.02 1661.053,1284.92 1661.053,1223.02 C1661.053,1161.12 1610.953,1111.02 1549.053,1111.02 C1487.153,1111.02 1437.053,1161.12 1437.053,1223.02 C1437.053,1284.92 1487.153,1335.02 1549.053,1335.02 z M1625.853,1367.02 L1617.553,1367.02 C1596.753,1377.02 1573.653,1383.02 1549.053,1383.02 C1524.453,1383.02 1501.453,1377.02 1480.553,1367.02 L1472.253,1367.02 C1408.653,1367.02 1357.053,1418.62 1357.053,1482.22 L1357.053,1511.02 C1357.053,1537.52 1378.553,1559.02 1405.053,1559.02 L1693.053,1559.02 C1719.553,1559.02 1741.053,1537.52 1741.053,1511.02 L1741.053,1482.22 C1741.053,1418.62 1689.453,1367.02 1625.853,1367.02 z M1402.153,1353.62 C1390.553,1342.12 1374.653,1335.02 1357.053,1335.02 L1293.053,1335.02 C1257.753,1335.02 1229.053,1363.72 1229.053,1399.02 L1229.053,1431.02 C1229.053,1448.72 1243.353,1463.02 1261.053,1463.02 L1326.953,1463.02 C1333.253,1415.62 1361.853,1375.72 1402.153,1353.62 z" fill="#000000" id="users-solid"/>
    <path d="M1276.353,-377.777 C1281.883,-377.777 1286.366,-382.26 1286.366,-387.79 C1286.366,-393.32 1281.883,-397.803 1276.353,-397.803 C1270.823,-397.803 1266.34,-393.32 1266.34,-387.79 C1266.34,-382.26 1270.823,-377.777 1276.353,-377.777 z M1275.518,-352.535 C1276.702,-351.588 1278.174,-351.072 1279.69,-351.075 L1293.041,-351.075 C1296.728,-351.075 1299.717,-354.064 1299.717,-357.751 C1299.717,-361.437 1296.728,-364.426 1293.041,-364.426 L1282.031,-364.426 L1267.174,-376.317 C1264.672,-378.325 1261.094,-378.265 1258.661,-376.175 L1235.297,-356.149 C1233.711,-354.788 1232.853,-352.764 1232.979,-350.678 C1233.105,-348.592 1234.201,-346.685 1235.94,-345.526 L1252.989,-334.153 L1252.989,-311.023 C1252.989,-307.336 1255.978,-304.348 1259.664,-304.348 C1263.351,-304.348 1266.34,-307.336 1266.34,-311.023 L1266.34,-337.725 C1266.339,-339.956 1265.224,-342.04 1263.367,-343.278 L1254.739,-349.029 L1266.89,-359.442 z M1299.717,-344.4 C1284.97,-344.4 1273.015,-332.445 1273.015,-317.698 C1273.015,-302.952 1284.97,-290.997 1299.717,-290.997 C1314.463,-290.997 1326.418,-302.952 1326.418,-317.698 C1326.418,-332.445 1314.463,-344.4 1299.717,-344.4 z M1299.717,-304.348 C1292.343,-304.348 1286.366,-310.325 1286.366,-317.698 C1286.366,-325.072 1292.343,-331.049 1299.717,-331.049 C1307.09,-331.049 1313.067,-325.072 1313.067,-317.698 C1313.067,-310.325 1307.09,-304.348 1299.717,-304.348 z M1219.612,-344.4 C1204.865,-344.4 1192.911,-332.445 1192.911,-317.698 C1192.911,-302.952 1204.865,-290.997 1219.612,-290.997 C1234.359,-290.997 1246.314,-302.952 1246.314,-317.698 C1246.314,-332.445 1234.359,-344.4 1219.612,-344.4 z M1219.612,-304.348 C1212.239,-304.348 1206.261,-310.325 1206.261,-317.698 C1206.261,-325.072 1212.239,-331.049 1219.612,-331.049 C1226.985,-331.049 1232.963,-325.072 1232.963,-317.698 C1232.963,-310.325 1226.985,-304.348 1219.612,-304.348 z" fill-opacity="0" stroke="#000000" stroke-width="2" id="biking-solid"/>
    <g id="walking-solid">
      <path d="M1268.686,-105.461 C1273.673,-105.461 1277.718,-109.506 1277.718,-114.493 C1277.718,-119.479 1273.673,-123.524 1268.686,-123.524 C1263.7,-123.524 1259.655,-119.479 1259.655,-114.493 C1259.655,-109.506 1263.7,-105.461 1268.686,-105.461 z M1286.468,-77.405 L1282.084,-79.626 L1280.258,-85.158 C1277.492,-93.55 1269.778,-99.421 1261.028,-99.439 C1254.254,-99.458 1250.51,-97.539 1243.472,-94.698 C1239.408,-93.061 1236.078,-89.956 1234.121,-86.005 L1232.86,-83.446 C1231.392,-80.473 1232.578,-76.86 1235.532,-75.373 C1238.467,-73.887 1242.042,-75.091 1243.529,-78.064 L1244.79,-80.623 C1245.448,-81.94 1246.539,-82.975 1247.894,-83.521 L1252.937,-85.553 L1250.077,-74.131 C1249.099,-70.218 1250.152,-66.059 1252.881,-63.067 L1264.152,-50.761 C1265.506,-49.275 1266.466,-47.487 1266.955,-45.549 L1270.399,-31.757 C1271.208,-28.539 1274.482,-26.564 1277.699,-27.373 C1280.917,-28.182 1282.893,-31.456 1282.084,-34.673 L1277.906,-51.42 C1277.417,-53.358 1276.458,-55.164 1275.103,-56.632 L1266.541,-65.984 L1269.778,-78.911 L1270.813,-75.806 C1271.81,-72.777 1273.955,-70.274 1276.777,-68.844 L1281.162,-66.624 C1284.097,-65.137 1287.672,-66.341 1289.159,-69.314 C1290.607,-72.269 1289.422,-75.919 1286.468,-77.405 z M1243.397,-50.931 C1242.795,-49.407 1241.892,-48.033 1240.725,-46.885 L1231.317,-37.458 C1228.965,-35.106 1228.965,-31.286 1231.317,-28.934 C1233.669,-26.582 1237.47,-26.582 1239.822,-28.934 L1250.999,-40.111 C1252.147,-41.259 1253.05,-42.633 1253.671,-44.157 L1256.211,-50.517 C1245.806,-61.863 1248.929,-58.382 1247.292,-60.621 L1243.397,-50.931 z" fill="#8BD5A1"/>
      <path d="M1268.686,-105.461 C1273.673,-105.461 1277.718,-109.506 1277.718,-114.493 C1277.718,-119.479 1273.673,-123.524 1268.686,-123.524 C1263.7,-123.524 1259.655,-119.479 1259.655,-114.493 C1259.655,-109.506 1263.7,-105.461 1268.686,-105.461 z M1286.468,-77.405 L1282.084,-79.626 L1280.258,-85.158 C1277.492,-93.55 1269.778,-99.421 1261.028,-99.439 C1254.254,-99.458 1250.51,-97.539 1243.472,-94.698 C1239.408,-93.061 1236.078,-89.956 1234.121,-86.005 L1232.86,-83.446 C1231.392,-80.473 1232.578,-76.86 1235.532,-75.373 C1238.467,-73.887 1242.042,-75.091 1243.529,-78.064 L1244.79,-80.623 C1245.448,-81.94 1246.539,-82.975 1247.894,-83.521 L1252.937,-85.553 L1250.077,-74.131 C1249.099,-70.218 1250.152,-66.059 1252.881,-63.067 L1264.152,-50.761 C1265.506,-49.275 1266.466,-47.487 1266.955,-45.549 L1270.399,-31.757 C1271.208,-28.539 1274.482,-26.564 1277.699,-27.373 C1280.917,-28.182 1282.893,-31.456 1282.084,-34.673 L1277.906,-51.42 C1277.417,-53.358 1276.458,-55.164 1275.103,-56.632 L1266.541,-65.984 L1269.778,-78.911 L1270.813,-75.806 C1271.81,-72.777 1273.955,-70.274 1276.777,-68.844 L1281.162,-66.624 C1284.097,-65.137 1287.672,-66.341 1289.159,-69.314 C1290.607,-72.269 1289.422,-75.919 1286.468,-77.405 z M1243.397,-50.931 C1242.795,-49.407 1241.892,-48.033 1240.725,-46.885 L1231.317,-37.458 C1228.965,-35.106 1228.965,-31.286 1231.317,-28.934 C1233.669,-26.582 1237.47,-26.582 1239.822,-28.934 L1250.999,-40.111 C1252.147,-41.259 1253.05,-42.633 1253.671,-44.157 L1256.211,-50.517 C1245.806,-61.863 1248.929,-58.382 1247.292,-60.621 L1243.397,-50.931 z" fill-opacity="0" stroke="#000000" stroke-width="2"/>
    </g>
    <g id="car-side-solid">
      <path d="M1294.377,166.232 L1290.382,166.232 L1263.223,132.282 C1260.19,128.492 1255.599,126.285 1250.745,126.285 L1197.338,126.285 C1190.804,126.285 1184.929,130.262 1182.502,136.329 L1170.541,166.796 C1163.66,168.579 1158.556,174.773 1158.556,182.211 L1158.556,210.174 C1158.556,212.381 1160.344,214.169 1162.551,214.169 L1174.535,214.169 C1174.535,227.406 1185.266,238.137 1198.504,238.137 C1211.741,238.137 1222.472,227.406 1222.472,214.169 L1254.43,214.169 C1254.43,227.406 1265.161,238.137 1278.398,238.137 C1291.636,238.137 1302.366,227.406 1302.366,214.169 L1314.351,214.169 C1316.558,214.169 1318.345,212.381 1318.345,210.174 L1318.345,190.2 C1318.345,176.963 1307.615,166.232 1294.377,166.232 z M1198.504,226.153 C1191.895,226.153 1186.52,220.777 1186.52,214.169 C1186.52,207.56 1191.895,202.184 1198.504,202.184 C1205.112,202.184 1210.488,207.56 1210.488,214.169 C1210.488,220.777 1205.112,226.153 1198.504,226.153 z M1216.48,166.232 L1187.75,166.232 L1197.338,142.264 L1216.48,142.264 L1216.48,166.232 z M1228.464,166.232 L1228.464,142.264 L1250.745,142.264 L1269.919,166.232 L1228.464,166.232 z M1278.398,226.153 C1271.789,226.153 1266.414,220.777 1266.414,214.169 C1266.414,207.56 1271.789,202.184 1278.398,202.184 C1285.007,202.184 1290.382,207.56 1290.382,214.169 C1290.382,220.777 1285.007,226.153 1278.398,226.153 z" fill="#DAABDF"/>
      <path d="M1294.377,166.232 L1290.382,166.232 L1263.223,132.282 C1260.19,128.492 1255.599,126.285 1250.745,126.285 L1197.338,126.285 C1190.804,126.285 1184.929,130.262 1182.502,136.329 L1170.541,166.796 C1163.66,168.579 1158.556,174.773 1158.556,182.211 L1158.556,210.174 C1158.556,212.381 1160.344,214.169 1162.551,214.169 L1174.535,214.169 C1174.535,227.406 1185.266,238.137 1198.504,238.137 C1211.741,238.137 1222.472,227.406 1222.472,214.169 L1254.43,214.169 C1254.43,227.406 1265.161,238.137 1278.398,238.137 C1291.636,238.137 1302.366,227.406 1302.366,214.169 L1314.351,214.169 C1316.558,214.169 1318.345,212.381 1318.345,210.174 L1318.345,190.2 C1318.345,176.963 1307.615,166.232 1294.377,166.232 z M1198.504,226.153 C1191.895,226.153 1186.52,220.777 1186.52,214.169 C1186.52,207.56 1191.895,202.184 1198.504,202.184 C1205.112,202.184 1210.488,207.56 1210.488,214.169 C1210.488,220.777 1205.112,226.153 1198.504,226.153 z M1216.48,166.232 L1187.75,166.232 L1197.338,142.264 L1216.48,142.264 L1216.48,166.232 z M1228.464,166.232 L1228.464,142.264 L1250.745,142.264 L1269.919,166.232 L1228.464,166.232 z M1278.398,226.153 C1271.789,226.153 1266.414,220.777 1266.414,214.169 C1266.414,207.56 1271.789,202.184 1278.398,202.184 C1285.007,202.184 1290.382,207.56 1290.382,214.169 C1290.382,220.777 1285.007,226.153 1278.398,226.153 z" fill-opacity="0" stroke="#000000" stroke-width="2"/>
    </g>
    <g>
      <g id="user-graduate-solid">
        <path d="M475.788,440.671 L402.5,513.958 L329.212,440.671 C274.285,443.052 230.42,487.993 230.42,543.458 L230.42,550.833 C230.42,571.191 246.936,587.707 267.294,587.707 L537.706,587.707 C558.064,587.707 574.58,571.191 574.58,550.833 L574.58,543.458 C574.58,487.993 530.715,443.052 475.788,440.671 z M240.868,255.685 L245.784,256.837 L245.784,301.701 C240.407,304.927 236.566,310.535 236.566,317.295 C236.566,323.748 240.099,329.126 245.093,332.429 L233.109,380.289 C231.803,385.59 234.722,391.044 238.947,391.044 L271.058,391.044 C275.284,391.044 278.203,385.59 276.897,380.289 L264.913,332.429 C269.906,329.126 273.44,323.748 273.44,317.295 C273.44,310.535 269.599,304.927 264.221,301.701 L264.221,261.293 L314.923,273.507 C308.317,286.721 304.168,301.47 304.168,317.295 C304.168,371.608 348.187,415.627 402.5,415.627 C456.813,415.627 500.832,371.608 500.832,317.295 C500.832,301.47 496.76,286.721 490.077,273.507 L564.056,255.685 C578.037,252.304 578.037,234.866 564.056,231.486 L417.787,196.148 C407.801,193.767 397.276,193.767 387.289,196.148 L240.868,231.409 C226.963,234.789 226.963,252.304 240.868,255.685 z" fill="#A4A4A4"/>
        <path d="M475.788,440.671 L402.5,513.958 L329.212,440.671 C274.285,443.052 230.42,487.993 230.42,543.458 L230.42,550.833 C230.42,571.191 246.936,587.707 267.294,587.707 L537.706,587.707 C558.064,587.707 574.58,571.191 574.58,550.833 L574.58,543.458 C574.58,487.993 530.715,443.052 475.788,440.671 z M240.868,255.685 L245.784,256.837 L245.784,301.701 C240.407,304.927 236.566,310.535 236.566,317.295 C236.566,323.748 240.099,329.126 245.093,332.429 L233.109,380.289 C231.803,385.59 234.722,391.044 238.947,391.044 L271.058,391.044 C275.284,391.044 278.203,385.59 276.897,380.289 L264.913,332.429 C269.906,329.126 273.44,323.748 273.44,317.295 C273.44,310.535 269.599,304.927 264.221,301.701 L264.221,261.293 L314.923,273.507 C308.317,286.721 304.168,301.47 304.168,317.295 C304.168,371.608 348.187,415.627 402.5,415.627 C456.813,415.627 500.832,371.608 500.832,317.295 C500.832,301.47 496.76,286.721 490.077,273.507 L564.056,255.685 C578.037,252.304 578.037,234.866 564.056,231.486 L417.787,196.148 C407.801,193.767 397.276,193.767 387.289,196.148 L240.868,231.409 C226.963,234.789 226.963,252.304 240.868,255.685 z" fill-opacity="0" stroke="#000000" stroke-width="6"/>
      </g>
      <g>
        <path d="M525.954,493.303 C508.332,475.301 479.454,474.994 461.45,492.617 C443.449,510.239 443.141,539.117 460.763,557.119 C478.386,575.122 507.265,575.43 525.266,557.809 C543.269,540.185 543.577,511.306 525.954,493.303" fill="#00A3DA" id="Badge"/>
        <g id="Bicycle">
          <g>
            <path d="M504.448,532.59 C504.448,538.372 509.135,543.058 514.916,543.058 C520.698,543.058 525.384,538.372 525.384,532.59 C525.384,526.809 520.698,522.122 514.916,522.122 C509.135,522.122 504.448,526.809 504.448,532.59 z M462.666,532.572 C462.666,538.354 467.353,543.04 473.134,543.04 C478.916,543.04 483.603,538.354 483.603,532.572 C483.603,526.791 478.916,522.103 473.134,522.103 C467.353,522.103 462.666,526.791 462.666,532.572 z" fill="#00A3DA"/>
            <path d="M504.448,532.59 C504.448,538.372 509.135,543.058 514.916,543.058 C520.698,543.058 525.384,538.372 525.384,532.59 C525.384,526.809 520.698,522.122 514.916,522.122 C509.135,522.122 504.448,526.809 504.448,532.59 z M462.666,532.572 C462.666,538.354 467.353,543.04 473.134,543.04 C478.916,543.04 483.603,538.354 483.603,532.572 C483.603,526.791 478.916,522.103 473.134,522.103 C467.353,522.103 462.666,526.791 462.666,532.572 z" fill-opacity="0" stroke="#FFFFFF" stroke-width="3" stroke-linejoin="round"/>
          </g>
          <g>
            <path d="M486.541,532.572 C486.541,534.827 488.368,536.655 490.622,536.655 C492.877,536.655 494.705,534.827 494.705,532.572 C494.705,531.713 494.438,530.912 493.983,530.254 C493.244,529.189 492.015,528.491 490.622,528.491 C488.368,528.491 486.541,530.319 486.541,532.572 z M508.087,520.071 L494.788,529.551" fill="#00A3DA"/>
            <path d="M486.541,532.572 C486.541,534.827 488.368,536.655 490.622,536.655 C492.877,536.655 494.705,534.827 494.705,532.572 C494.705,531.713 494.438,530.912 493.983,530.254 C493.244,529.189 492.015,528.491 490.622,528.491 C488.368,528.491 486.541,530.319 486.541,532.572 z M508.087,520.071 L494.788,529.551" fill-opacity="0" stroke="#FFFFFF" stroke-width="3" stroke-linecap="round" stroke-linejoin="round"/>
          </g>
          <g>
            <path d="M507.56,515.594 L482.543,515.594 L473.135,532.573 L485.57,532.58 M502.294,507.299 L508.218,507.299 C508.218,507.299 510.983,508.615 508.218,509.932 C505.453,511.25 506.177,511.973 506.177,511.973 L510.853,526.391 C510.853,526.391 511.871,531.153 514.917,532.59 M489.169,528.758 L482.543,515.594 L482.543,510.064 L487.809,509.801 L477.539,510.064 L477.539,511.25 L481.885,510.722 M495.842,525.338 L493.734,525.338 L491.364,525.338 M492.286,527.971 L493.734,525.338 M489.125,539.691 L484.781,539.691 M488.006,536.464 L487.15,539.691" fill="#00A3DA"/>
            <path d="M507.56,515.594 L482.543,515.594 L473.135,532.573 L485.57,532.58 M502.294,507.299 L508.218,507.299 C508.218,507.299 510.983,508.615 508.218,509.932 C505.453,511.25 506.177,511.973 506.177,511.973 L510.853,526.391 C510.853,526.391 511.871,531.153 514.917,532.59 M489.169,528.758 L482.543,515.594 L482.543,510.064 L487.809,509.801 L477.539,510.064 L477.539,511.25 L481.885,510.722 M495.842,525.338 L493.734,525.338 L491.364,525.338 M492.286,527.971 L493.734,525.338 M489.125,539.691 L484.781,539.691 M488.006,536.464 L487.15,539.691" fill-opacity="0" stroke="#FFFFFF" stroke-width="3" stroke-linecap="round" stroke-linejoin="round"/>
          </g>
        </g>
      </g>
    </g>
  </g>
</svg>
