<?xml version="1.0" encoding="UTF-8"?>
<!DOCTYPE svg PUBLIC "-//W3C//DTD SVG 1.1//EN" "http://www.w3.org/Graphics/SVG/1.1/DTD/svg11.dtd">
<svg version="1.1" xmlns="http://www.w3.org/2000/svg" xmlns:xlink="http://www.w3.org/1999/xlink" x="0" y="0" width="804" height="804" viewBox="0, 0, 804, 804">
  <defs>
    <clipPath id="Clip_1">
      <path d="M155.908,253.482 L500.71,253.482 L500.71,620.134 L155.908,620.134 z M339.928,258.482 C335.56,259.219 333.435,259.506 329.745,262.307 C326.357,264.842 323.914,268.459 322.844,272.602 L307.707,330.991 C300.15,360.089 282.738,386.03 258.68,404.031 L173.525,467.746 C157.404,479.808 154.115,502.648 166.176,518.769 L198.034,561.347 C210.095,577.467 232.936,580.757 249.057,568.695 L263.104,558.185 C265.909,563.019 268.877,567.768 272.256,572.226 C285.227,589.562 301.75,603.427 320.75,613.238 C326.829,616.376 334.38,615.545 340.065,611.292 L373.009,586.642 C385.267,577.471 382.019,558.023 367.393,553.86 C352.778,549.701 339.895,540.947 330.623,528.555 C327.408,523.928 324.379,519.13 322.389,513.827 L334.212,504.98 C358.271,486.979 388.072,477.597 418.115,478.561 L478.403,480.517 C482.651,480.655 486.819,479.345 490.225,476.802 C495.483,472.867 497.834,467.712 497.705,462.004 C497.607,457.706 496.023,453.292 494,450.59 L443.602,383.232 C448.211,371.328 446.836,358.063 439.173,347.715 C431.202,337.774 419.229,332.053 406.357,333.444 L355.959,266.087 C354.003,263.472 350.214,260.704 346.133,259.377 C342.732,258.475 344.78,258.889 339.928,258.482 z"/>
    </clipPath>
    <filter id="Shadow_2">
      <feGaussianBlur in="SourceAlpha" stdDeviation="0"/>
      <feOffset dx="-2" dy="4" result="offsetblur"/>
      <feFlood flood-color="#000000"/>
      <feComposite in2="offsetblur" operator="in"/>
    </filter>
    <clipPath id="Clip_3">
      <path d="M355.455,118.173 L487.045,118.173 L487.045,259.758 L355.455,259.758 z M421.914,138.173 C393.927,139.194 373.081,157.296 370.562,185.687 C368.752,213.681 389.979,237.841 417.973,239.651 C445.967,241.461 470.127,220.234 471.937,192.24 C473.747,164.246 452.52,140.086 424.526,138.276 L421.914,138.173 z"/>
    </clipPath>
    <filter id="Shadow_4">
      <feGaussianBlur in="SourceAlpha" stdDeviation="5"/>
      <feOffset dx="-4" dy="9" result="offsetblur"/>
      <feFlood flood-color="#000000"/>
      <feComposite in2="offsetblur" operator="in"/>
    </filter>
    <clipPath id="Clip_5">
      <path d="M510.152,186.304 L638.79,186.304 L638.79,316.89 L510.152,316.89 z M572.037,197.304 C544.515,199.888 524.052,217.755 520.473,245.714 C517.238,275.536 538.791,302.334 568.613,305.569 C598.435,308.804 625.233,287.251 628.468,257.429 C631.703,227.607 610.15,200.809 580.328,197.574 C575.713,197.191 578.474,197.349 572.037,197.304 z"/>
    </clipPath>
    <filter id="Shadow_6">
      <feGaussianBlur in="SourceAlpha" stdDeviation="3"/>
      <feOffset dx="-3" dy="4" result="offsetblur"/>
      <feFlood flood-color="#000000"/>
      <feComposite in2="offsetblur" operator="in"/>
    </filter>
    <clipPath id="Clip_7">
      <path d="M547.35,343.635 L676.863,343.635 L676.863,471.148 L547.35,471.148 z M612.078,357.635 C610.465,357.714 608.846,357.713 607.238,357.872 C601.436,358.445 595.772,360.056 590.518,362.575 C565.768,374.497 555.368,404.226 567.29,428.978 C579.213,453.73 608.943,464.13 633.693,452.208 C658.447,440.285 668.846,410.555 656.924,385.803 C648.137,368.685 631.434,357.892 612.078,357.635 z"/>
    </clipPath>
    <filter id="Shadow_8">
      <feGaussianBlur in="SourceAlpha" stdDeviation="4"/>
      <feOffset dx="-6" dy="5" result="offsetblur"/>
      <feFlood flood-color="#000000"/>
      <feComposite in2="offsetblur" operator="in"/>
    </filter>
  </defs>
  <g id="Layer_1">
    <g>
      <path d="M402,802 C181.086,802 2,622.914 2,402 C2,181.086 181.086,2 402,2 C622.914,2 802,181.086 802,402 C802,622.914 622.914,802 402,802 z" fill="#FFFFFF"/>
      <path d="M402,2 C622.914,2 802,181.086 802,402 C802,622.914 622.914,802 402,802 C181.086,802 2,622.914 2,402 C2,181.086 181.086,2 402,2 z M402,6 C183.295,6 6,183.295 6,402 C6,620.705 183.295,798 402,798 C620.705,798 798,620.705 798,402 C798,183.295 620.705,6 402,6 z" fill="#00A3DA"/>
    </g>
    <g id="bullhorn-solid_(1)">
      <path d="M339.928,258.482 C344.78,258.889 342.732,258.475 346.133,259.377 C350.214,260.704 354.003,263.472 355.959,266.087 L406.357,333.444 C419.229,332.053 431.202,337.774 439.173,347.715 C446.836,358.063 448.211,371.328 443.602,383.232 L494,450.59 C496.023,453.292 497.607,457.706 497.705,462.004 C497.834,467.712 495.483,472.867 490.225,476.802 C486.819,479.345 482.651,480.655 478.403,480.517 L418.115,478.561 C388.072,477.597 358.271,486.979 334.212,504.98 L322.389,513.827 C324.379,519.13 327.408,523.928 330.623,528.555 C339.895,540.947 352.778,549.701 367.393,553.86 C382.019,558.023 385.267,577.471 373.009,586.642 L340.065,611.292 C334.38,615.545 326.829,616.376 320.75,613.238 C301.75,603.427 285.227,589.562 272.256,572.226 C268.877,567.768 265.909,563.019 263.104,558.185 L249.057,568.695 C232.936,580.757 210.095,577.467 198.034,561.347 L166.176,518.769 C154.115,502.648 157.404,479.808 173.525,467.746 L258.68,404.031 C282.738,386.03 300.15,360.089 307.707,330.991 L322.844,272.602 C323.914,268.459 326.357,264.842 329.745,262.307 C333.435,259.506 335.56,259.219 339.928,258.482 z" clip-path="url(#Clip_1)" filter="url(#Shadow_2)" fill="rgba(0,0,0,0.75)"/>
      <path d="M438.372,348.314 C430.531,337.834 418.014,333.079 405.888,334.487 L355.159,266.686 C352.255,262.805 341.44,254.805 330.344,263.108 C327.186,265.471 324.84,268.873 323.812,272.852 L308.675,331.242 C301.062,360.557 283.522,386.693 259.279,404.832 L174.124,468.547 C158.446,480.277 155.246,502.492 166.977,518.17 L198.834,560.748 C210.565,576.426 232.78,579.625 248.458,567.895 L263.405,556.711 C266.266,561.821 269.453,566.811 273.057,571.627 C286.254,589.266 302.832,602.861 321.208,612.349 C327.058,615.368 334.197,614.434 339.466,610.491 L372.41,585.842 C383.964,577.197 380.998,558.772 367.119,554.822 C352.704,550.72 339.473,542.052 329.823,529.154 C326.136,524.227 323.31,518.952 321.159,513.498 L333.613,504.18 C357.856,486.041 387.88,476.59 418.147,477.562 L478.435,479.517 C482.457,479.648 486.403,478.408 489.626,476 C500.679,467.731 496.259,455.278 493.2,451.189 L442.47,383.388 C447.243,372.144 446.214,358.795 438.372,348.314 z M442.725,442.894 L348.865,317.449 L442.725,442.894 z" fill="#A4A4A4"/>
      <path d="M438.372,348.314 C430.531,337.834 418.014,333.079 405.888,334.487 L355.159,266.686 C352.255,262.805 341.44,254.805 330.344,263.108 C327.186,265.471 324.84,268.873 323.812,272.852 L308.675,331.242 C301.062,360.557 283.522,386.693 259.279,404.832 L174.124,468.547 C158.446,480.277 155.246,502.492 166.977,518.17 L198.834,560.748 C210.565,576.426 232.78,579.625 248.458,567.895 L263.405,556.711 C266.266,561.821 269.453,566.811 273.057,571.627 C286.254,589.266 302.832,602.861 321.208,612.349 C327.058,615.368 334.197,614.434 339.466,610.491 L372.41,585.842 C383.964,577.197 380.998,558.772 367.119,554.822 C352.704,550.72 339.473,542.052 329.823,529.154 C326.136,524.227 323.31,518.952 321.159,513.498 L333.613,504.18 C357.856,486.041 387.88,476.59 418.147,477.562 L478.435,479.517 C482.457,479.648 486.403,478.408 489.626,476 C500.679,467.731 496.259,455.278 493.2,451.189 L442.47,383.388 C447.243,372.144 446.214,358.795 438.372,348.314 z M442.725,442.894 L348.865,317.449 L442.725,442.894 z" fill-opacity="0" stroke="#000000" stroke-width="2"/>
    </g>
    <g>
      <g>
        <path d="M421.914,138.173 L424.526,138.276 C452.52,140.086 473.747,164.246 471.937,192.24 C470.127,220.234 445.967,241.461 417.973,239.651 C389.979,237.841 368.752,213.681 370.562,185.687 C373.081,157.296 393.927,139.194 421.914,138.173 z" clip-path="url(#Clip_3)" filter="url(#Shadow_4)" fill="rgba(0,0,0,0.75)"/>
        <path d="M417.973,239.651 C389.979,237.841 368.752,213.681 370.562,185.687 C372.372,157.693 396.533,136.466 424.526,138.276 C452.52,140.086 473.747,164.246 471.937,192.24 C470.127,220.234 445.967,241.461 417.973,239.651 z" fill="#619AAE"/>
      </g>
      <path d="M450.546,169.557 C443.562,162.78 432.495,163.202 425.258,169.764 L422.423,172.331 L419.943,169.421 C413.624,161.982 402.691,160.138 394.892,165.959 C385.953,172.641 384.669,185.589 391.743,193.916 L416.102,222.554 C417.676,224.403 420.414,224.58 422.212,222.949 L450.055,197.686 C458.156,190.34 458.55,177.335 450.546,169.557 z" fill="#FF8BD3" id="heart-solid"/>
    </g>
    <g>
      <g>
        <path d="M572.037,197.304 C578.474,197.349 575.713,197.191 580.328,197.574 C610.15,200.809 631.703,227.607 628.468,257.429 C625.233,287.251 598.435,308.804 568.613,305.569 C538.791,302.334 517.238,275.536 520.473,245.714 C524.052,217.755 544.515,199.888 572.037,197.304 z" clip-path="url(#Clip_5)" filter="url(#Shadow_6)" fill="rgba(0,0,0,0.75)"/>
        <path d="M568.613,305.569 C538.791,302.334 517.238,275.536 520.473,245.714 C523.708,215.892 550.506,194.339 580.328,197.574 C610.15,200.809 631.703,227.607 628.468,257.429 C625.233,287.251 598.435,308.804 568.613,305.569 z" fill="#403434"/>
      </g>
      <path d="M547.55,237.371 C551.983,237.852 555.978,234.639 556.459,230.206 C556.94,225.773 553.727,221.778 549.294,221.297 C544.861,220.816 540.866,224.03 540.385,228.463 C539.904,232.895 543.117,236.891 547.55,237.371 z M603.81,243.474 C608.243,243.955 612.238,240.742 612.719,236.309 C613.2,231.876 609.987,227.881 605.554,227.4 C601.121,226.919 597.125,230.132 596.645,234.565 C596.164,238.998 599.377,242.993 603.81,243.474 z M607.393,247.929 L599.355,247.057 C597.145,246.817 595.052,247.492 593.438,248.778 C598.198,252.103 601.246,257.503 601.379,263.54 L609.667,264.439 C611.89,264.68 613.881,263.079 614.122,260.856 L614.558,256.838 C615.039,252.405 611.826,248.41 607.393,247.929 z M575.244,244.441 C583.018,245.285 589.992,239.676 590.835,231.902 C591.678,224.129 586.069,217.155 578.296,216.312 C570.522,215.468 563.548,221.077 562.705,228.851 C561.862,236.624 567.471,243.598 575.244,244.441 z M584.453,249.506 L583.41,249.393 C580.662,250.366 577.68,250.804 574.59,250.469 C571.501,250.134 568.694,249.067 566.206,247.527 L565.164,247.414 C557.177,246.547 549.994,252.324 549.128,260.311 L548.735,263.928 C548.374,267.256 550.781,270.249 554.109,270.61 L590.276,274.533 C593.604,274.894 596.597,272.487 596.958,269.159 L597.35,265.542 C598.217,257.555 592.44,250.373 584.453,249.506 z M556.543,244.776 C555.243,243.174 553.343,242.066 551.133,241.826 L543.096,240.954 C538.663,240.473 534.668,243.686 534.187,248.119 L533.751,252.138 C533.51,254.361 535.111,256.351 537.334,256.592 L545.609,257.49 C547.046,251.623 551.181,247.002 556.543,244.776 z" fill="#00D140" id="users-solid"/>
    </g>
    <g>
      <g id="Badge">
        <path d="M612.078,357.635 C631.434,357.892 648.137,368.685 656.924,385.803 C668.846,410.555 658.447,440.285 633.693,452.208 C608.943,464.13 579.213,453.73 567.29,428.978 C555.368,404.226 565.768,374.497 590.518,362.575 C595.772,360.056 601.436,358.445 607.238,357.872 C608.846,357.713 610.465,357.714 612.078,357.635 z" clip-path="url(#Clip_7)" filter="url(#Shadow_8)" fill="rgba(0,0,0,0.75)"/>
        <path d="M656.924,385.803 C645.001,361.051 615.272,350.652 590.518,362.575 C565.768,374.497 555.368,404.226 567.29,428.978 C579.213,453.73 608.943,464.13 633.693,452.209 C658.447,440.285 668.846,410.555 656.924,385.803" fill="#00A3DA"/>
      </g>
      <g id="Bicycle">
        <g>
          <path d="M621.147,418.694 C619.128,424.668 622.334,431.146 628.308,433.164 C634.281,435.183 640.759,431.977 642.777,426.003 C644.796,420.03 641.59,413.552 635.616,411.533 C629.643,409.515 623.165,412.721 621.147,418.694 z M577.984,404.09 C575.966,410.063 579.172,416.541 585.145,418.56 C591.119,420.578 597.597,417.372 599.615,411.399 C601.634,405.425 598.428,398.946 592.455,396.928 C586.481,394.909 580.003,398.116 577.984,404.09 z" fill="#00A3DA"/>
          <path d="M621.147,418.694 C619.128,424.668 622.334,431.146 628.308,433.164 C634.281,435.183 640.759,431.977 642.777,426.003 C644.796,420.03 641.59,413.552 635.616,411.533 C629.643,409.515 623.165,412.721 621.147,418.694 z M577.984,404.09 C575.966,410.063 579.172,416.541 585.145,418.56 C591.119,420.578 597.597,417.372 599.615,411.399 C601.634,405.425 598.428,398.946 592.455,396.928 C586.481,394.909 580.003,398.116 577.984,404.09 z" fill-opacity="0" stroke="#FFFFFF" stroke-width="3" stroke-linejoin="round"/>
        </g>
        <g>
          <path d="M602.651,412.425 C601.864,414.754 603.114,417.281 605.442,418.068 C607.773,418.855 610.299,417.604 611.086,415.275 C611.386,414.386 611.389,413.466 611.15,412.627 C610.758,411.269 609.731,410.119 608.292,409.633 C605.964,408.846 603.438,410.096 602.651,412.425 z M629.276,407.03 L612.226,412.182" fill="#00A3DA"/>
          <path d="M602.651,412.425 C601.864,414.754 603.114,417.281 605.442,418.068 C607.773,418.855 610.299,417.604 611.086,415.275 C611.386,414.386 611.389,413.466 611.15,412.627 C610.758,411.269 609.731,410.119 608.292,409.633 C605.964,408.846 603.438,410.096 602.651,412.425 z M629.276,407.03 L612.226,412.182" fill-opacity="0" stroke="#FFFFFF" stroke-width="3" stroke-linecap="round" stroke-linejoin="round"/>
        </g>
        <g>
          <path d="M630.295,402.221 L604.447,393.487 L588.8,407.744 L601.646,412.094 M627.75,391.811 L633.871,393.88 C633.871,393.88 636.268,396.205 632.952,396.601 C629.635,396.997 630.13,397.997 630.13,397.997 L629.927,414.526 C629.927,414.526 629.317,419.801 631.962,422.349 M606.698,409.401 L604.447,393.487 L606.378,387.773 L611.91,389.341 L601.208,386.026 L600.794,387.252 L605.469,388.224 M614.786,408.197 L612.609,407.461 L610.16,406.634 M610.193,409.676 L612.609,407.461 M602.836,420.682 L598.348,419.165 M602.806,416.957 L600.796,419.992" fill="#00A3DA"/>
          <path d="M630.295,402.221 L604.447,393.487 L588.8,407.744 L601.646,412.094 M627.75,391.811 L633.871,393.88 C633.871,393.88 636.268,396.205 632.952,396.601 C629.635,396.997 630.13,397.997 630.13,397.997 L629.927,414.526 C629.927,414.526 629.317,419.801 631.962,422.349 M606.698,409.401 L604.447,393.487 L606.378,387.773 L611.91,389.341 L601.208,386.026 L600.794,387.252 L605.469,388.224 M614.786,408.197 L612.609,407.461 L610.16,406.634 M610.193,409.676 L612.609,407.461 M602.836,420.682 L598.348,419.165 M602.806,416.957 L600.796,419.992" fill-opacity="0" stroke="#FFFFFF" stroke-width="3" stroke-linecap="round" stroke-linejoin="round"/>
        </g>
      </g>
    </g>
    <path d="M326.349,526.618 L313.854,532.865" fill-opacity="0" stroke="#000000" stroke-width="2"/>
    <path d="M331.902,532.865 L320.796,538.419" fill-opacity="0" stroke="#000000" stroke-width="2"/>
    <path d="M338.15,538.419 L326.349,543.972" fill-opacity="0" stroke="#000000" stroke-width="2"/>
    <g>
      <path d="M193.781,506.364 C188.023,506.364 183.355,501.696 183.355,495.938 C183.355,490.18 188.023,485.513 193.781,485.513 C199.539,485.513 204.206,490.18 204.206,495.938 C204.206,501.696 199.539,506.364 193.781,506.364 z" fill="#FF0000"/>
      <path d="M193.781,506.364 C188.023,506.364 183.355,501.696 183.355,495.938 C183.355,490.18 188.023,485.513 193.781,485.513 C199.539,485.513 204.206,490.18 204.206,495.938 C204.206,501.696 199.539,506.364 193.781,506.364 z" fill-opacity="0" stroke="#000000" stroke-width="2"/>
    </g>
    <path d="M426.55,334.283 L436.976,316.207" fill-opacity="0" stroke="#000000" stroke-width="2"/>
    <path d="M447.072,339.864 L461.668,329.438" fill-opacity="0" stroke="#000000" stroke-width="2"/>
    <path d="M455.179,365.258 L476.03,363.173" fill-opacity="0" stroke="#000000" stroke-width="2"/>
    <path d="M328.865,357.449 L398.856,449.802" fill-opacity="0" stroke="#000000" stroke-width="2"/>
  </g>
</svg>
