<?xml version="1.0" encoding="UTF-8"?>
<!DOCTYPE svg PUBLIC "-//W3C//DTD SVG 1.1//EN" "http://www.w3.org/Graphics/SVG/1.1/DTD/svg11.dtd">
<svg version="1.1" xmlns="http://www.w3.org/2000/svg" xmlns:xlink="http://www.w3.org/1999/xlink" x="0" y="0" width="640" height="550" viewBox="0, 0, 640, 550">
  <g id="Layer_1">
    <path d="M84.5,469.419 L394.94,469.419" fill-opacity="0" stroke="#3F3F3E" stroke-width="8" stroke-linecap="round"/>
    <path d="M12.5,496.414 L390.427,496.414" fill-opacity="0" stroke="#3F3F3E" stroke-width="10" stroke-linecap="round"/>
    <path d="M144.5,440.811 L394.94,440.63" fill-opacity="0" stroke="#3F3F3E" stroke-width="8" stroke-linecap="round"/>
    <g>
      <path d="M477.442,143.913 L371.999,350.855 L382.871,427.219 C384.315,437.534 395.565,443.217 404.778,438.382 L472.929,402.232 L578.372,195.29 C580.259,191.586 578.79,187.065 575.086,185.178 L487.612,140.608 C483.849,138.74 479.329,140.209 477.442,143.913 z M428.617,317.663 C424.283,315.455 422.582,310.221 424.79,305.886 L486.626,184.526 C488.835,180.192 494.069,178.491 498.403,180.7 C502.738,182.908 504.438,188.142 502.23,192.477 L440.394,313.837 C438.185,318.171 432.951,319.872 428.617,317.663 z M423.398,374.662 L451.948,365.385 L458.963,386.976 L422.783,406.163 L398.275,393.675 L392.531,353.127 L414.122,346.112 L423.398,374.662 z" fill="#4E2F12" id="pencil-alt-solid"/>
      <path d="M612.723,127.773 L594.213,164.102 C592.326,167.806 587.805,169.275 584.101,167.388 L496.628,122.817 C492.924,120.93 491.455,116.41 493.342,112.706 L511.853,76.377 C519.362,61.64 537.443,55.765 552.239,63.255 L599.601,87.387 C614.397,94.876 620.272,112.958 612.723,127.773 z M428.617,317.663 C424.283,315.455 422.582,310.221 424.79,305.886 L486.626,184.526 C488.835,180.192 494.069,178.491 498.403,180.7 C502.738,182.908 504.438,188.142 502.23,192.477 L440.394,313.837 C438.185,318.171 432.951,319.872 428.617,317.663 z" fill="#D66262" id="pencil-alt-solid"/>
      <path d="M380.22,408.176 L382.948,427.218 C383.31,429.797 384.284,432.086 385.685,433.994 C387.087,435.901 388.917,437.428 390.989,438.48 C393.061,439.533 395.377,440.113 397.749,440.127 C400.122,440.141 402.553,439.589 404.856,438.381 L421.894,429.343" fill="#3F3F3E" id="pencil-alt-solid"/>
    </g>
  </g>
</svg>
