<?xml version="1.0" encoding="UTF-8"?>
<!DOCTYPE svg PUBLIC "-//W3C//DTD SVG 1.1//EN" "http://www.w3.org/Graphics/SVG/1.1/DTD/svg11.dtd">
<svg version="1.1" xmlns="http://www.w3.org/2000/svg" xmlns:xlink="http://www.w3.org/1999/xlink" x="0" y="0" width="640" height="550" viewBox="0, 0, 640, 550">
  <g id="Layer_1">
    <path d="M341.693,473.673 L341.228,313.152" fill-opacity="0" stroke="#039FE0" stroke-width="10"/>
    <path d="M320.966,478.58 C330.175,466.849 347.393,464.634 359.424,473.633 C371.455,482.631 373.743,499.435 364.534,511.166 C355.325,522.896 338.106,525.111 326.075,516.113 C314.044,507.114 311.756,490.31 320.966,478.58 z" fill-opacity="0" stroke="#039FE0" stroke-width="13"/>
    <path d="M470.379,189.752 L340.147,283.595" fill-opacity="0" stroke="#039FE0" stroke-width="10"/>
    <path d="M154.641,89.811 L340.699,274.285" fill-opacity="0" stroke="#039FE0" stroke-width="10"/>
    <path d="M137.89,102.6 C117.841,105.433 98.892,91.415 95.567,71.29 C92.242,51.165 105.799,32.553 125.848,29.72 C145.897,26.887 164.846,40.905 168.172,61.031 C171.497,81.156 157.94,99.767 137.89,102.6 z" fill-opacity="0" stroke="#039FE0" stroke-width="16"/>
    <g>
      <path d="M418.048,270.839 C418.464,229.297 385.127,195.286 343.582,194.869 C302.043,194.453 268.03,227.789 267.614,269.331 C267.197,310.873 300.535,344.887 342.074,345.303 C383.619,345.72 417.631,312.381 418.048,270.839" fill="#039FE0" id="Badge"/>
      <g id="Bicycle">
        <g>
          <path d="M342.673,336.149 C378.883,336.512 408.531,307.453 408.894,271.244 C409.257,235.033 380.197,205.385 343.988,205.022 C307.778,204.659 278.13,233.719 277.767,269.929 C277.404,306.138 306.464,335.786 342.673,336.149 z" fill="#039FE0"/>
          <path d="M342.673,336.149 C378.883,336.512 408.531,307.453 408.894,271.244 C409.257,235.033 380.197,205.385 343.988,205.022 C307.778,204.659 278.13,233.719 277.767,269.929 C277.404,306.138 306.464,335.786 342.673,336.149 z" fill-opacity="0" stroke="#FFFFFF" stroke-width="5" stroke-linejoin="round"/>
        </g>
      </g>
    </g>
    <path d="M486.437,203.746 C471.538,203.089 459.712,190.38 460.022,175.359 C460.333,160.339 472.663,148.694 487.562,149.351 C502.461,150.008 514.287,162.717 513.977,177.738 C513.666,192.758 501.336,204.403 486.437,203.746 z" fill-opacity="0" stroke="#039FE0" stroke-width="12"/>
  </g>
</svg>
