<?xml version="1.0" encoding="UTF-8"?>
<!DOCTYPE svg PUBLIC "-//W3C//DTD SVG 1.1//EN" "http://www.w3.org/Graphics/SVG/1.1/DTD/svg11.dtd">
<svg version="1.1" xmlns="http://www.w3.org/2000/svg" xmlns:xlink="http://www.w3.org/1999/xlink" x="0" y="0" width="640" height="550" viewBox="0, 0, 640, 550">
  <g id="Layer_1">
    <g>
      <path d="M144.536,511.519 C116.604,512.431 94.08,516.829 94.227,521.342 C94.375,525.855 117.138,528.774 145.07,527.862 C173.002,526.95 195.526,522.553 195.378,518.039 C195.231,513.526 172.468,510.607 144.536,511.519 z" fill="#B4B4B4"/>
      <g>
        <g>
          <path d="M27.144,192.368 L494.465,20.617 C499.976,18.591 506.314,22.038 508.621,28.315 L619.658,330.436 C621.965,336.713 619.367,343.444 613.856,345.47 L146.535,517.221 C141.024,519.247 134.686,515.8 132.379,509.523 L21.342,207.402 C19.035,201.125 21.632,194.394 27.144,192.368 z" fill="#5CCE92"/>
          <path d="M27.144,192.368 L494.465,20.617 C499.976,18.591 506.314,22.038 508.621,28.315 L619.658,330.436 C621.965,336.713 619.367,343.444 613.856,345.47 L146.535,517.221 C141.024,519.247 134.686,515.8 132.379,509.523 L21.342,207.402 C19.035,201.125 21.632,194.394 27.144,192.368 z" fill-opacity="0" stroke="#353535" stroke-width="2" stroke-linecap="round"/>
        </g>
        <g id="users-solid">
          <path d="M412.495,304.038 C420.586,301.064 424.746,292.069 421.773,283.978 C418.799,275.887 409.804,271.727 401.713,274.7 C393.622,277.674 389.462,286.669 392.435,294.76 C395.409,302.851 404.404,307.011 412.495,304.038 z M515.177,266.3 C523.268,263.326 527.428,254.331 524.455,246.24 C521.481,238.149 512.485,233.989 504.395,236.962 C496.304,239.936 492.143,248.931 495.117,257.022 C498.091,265.113 507.086,269.273 515.177,266.3 z M525.207,270.939 L510.538,276.33 C506.504,277.812 503.458,280.779 501.768,284.392 C512.866,286.063 522.783,292.799 528.196,303.14 L543.324,297.581 C547.38,296.09 549.453,291.608 547.962,287.551 L545.267,280.216 C542.293,272.126 533.298,267.965 525.207,270.939 z M466.532,292.503 C480.719,287.289 487.982,271.586 482.768,257.398 C477.553,243.211 461.85,235.948 447.663,241.162 C433.475,246.377 426.212,262.08 431.427,276.267 C436.641,290.455 452.344,297.717 466.532,292.503 z M486.83,293.368 L484.927,294.067 C481.002,298.112 476.213,301.433 470.575,303.505 C464.937,305.577 459.16,306.139 453.527,305.608 L451.625,306.307 C437.047,311.664 429.567,327.838 434.925,342.415 L437.351,349.016 C439.583,355.09 446.322,358.206 452.396,355.974 L518.405,331.714 C524.479,329.482 527.596,322.743 525.364,316.669 L522.938,310.068 C517.58,295.491 501.407,288.011 486.83,293.368 z M434.429,309.141 C430.801,307.482 426.559,307.194 422.525,308.677 L407.856,314.068 C399.766,317.041 395.605,326.037 398.579,334.128 L401.274,341.462 C402.765,345.519 407.247,347.592 411.304,346.101 L426.408,340.55 C423.86,329.155 427.054,317.601 434.429,309.141 z" fill="#CECECE"/>
          <path d="M412.495,304.038 C420.586,301.064 424.746,292.069 421.773,283.978 C418.799,275.887 409.804,271.727 401.713,274.7 C393.622,277.674 389.462,286.669 392.435,294.76 C395.409,302.851 404.404,307.011 412.495,304.038 z M515.177,266.3 C523.268,263.326 527.428,254.331 524.455,246.24 C521.481,238.149 512.485,233.989 504.395,236.962 C496.304,239.936 492.143,248.931 495.117,257.022 C498.091,265.113 507.086,269.273 515.177,266.3 z M525.207,270.939 L510.538,276.33 C506.504,277.812 503.458,280.779 501.768,284.392 C512.866,286.063 522.783,292.799 528.196,303.14 L543.324,297.581 C547.38,296.09 549.453,291.608 547.962,287.551 L545.267,280.216 C542.293,272.126 533.298,267.965 525.207,270.939 z M466.532,292.503 C480.719,287.289 487.982,271.586 482.768,257.398 C477.553,243.211 461.85,235.948 447.663,241.162 C433.475,246.377 426.212,262.08 431.427,276.267 C436.641,290.455 452.344,297.717 466.532,292.503 z M486.83,293.368 L484.927,294.067 C481.002,298.112 476.213,301.433 470.575,303.505 C464.937,305.577 459.16,306.139 453.527,305.608 L451.625,306.307 C437.047,311.664 429.567,327.838 434.925,342.415 L437.351,349.016 C439.583,355.09 446.322,358.206 452.396,355.974 L518.405,331.714 C524.479,329.482 527.596,322.743 525.364,316.669 L522.938,310.068 C517.58,295.491 501.407,288.011 486.83,293.368 z M434.429,309.141 C430.801,307.482 426.559,307.194 422.525,308.677 L407.856,314.068 C399.766,317.041 395.605,326.037 398.579,334.128 L401.274,341.462 C402.765,345.519 407.247,347.592 411.304,346.101 L426.408,340.55 C423.86,329.155 427.054,317.601 434.429,309.141 z" fill-opacity="0" stroke="#000000" stroke-width="4"/>
        </g>
        <g>
          <path d="M143.603,393.431 L234.409,360.058" fill-opacity="0" stroke="#000000" stroke-width="6" stroke-dasharray="6,6" stroke-linecap="round"/>
          <path d="M154.894,424.152 L274.129,381.234" fill-opacity="0" stroke="#000000" stroke-width="6" stroke-dasharray="6,6" stroke-linecap="round"/>
          <path d="M168.31,460.656 L314.021,406.83" fill-opacity="0" stroke="#000000" stroke-width="6" stroke-dasharray="6,6" stroke-linecap="round"/>
        </g>
        <g>
          <g id="Badge">
            <path d="M414.464,155.489 C407.008,135.204 384.521,124.804 364.235,132.26 C343.951,139.715 333.551,162.201 341.006,182.486 C348.461,202.772 370.949,213.172 391.232,205.718 C411.519,198.262 421.919,175.774 414.464,155.489" fill="#039FE0"/>
            <path d="M375.613,126.9 C394.3,126.493 410.383,137.061 417.279,154.454 C425.306,176.295 414.108,200.506 392.267,208.533 C370.428,216.56 346.217,205.361 338.19,183.521 C330.163,161.681 341.361,137.47 363.2,129.444 C367.182,127.804 371.385,127.434 375.613,126.9 z M375.764,129.897 C366.74,131.27 370.54,130.297 364.235,132.26 C343.951,139.715 333.551,162.201 341.006,182.486 C348.461,202.772 370.949,213.172 391.232,205.718 C411.519,198.262 421.919,175.774 414.464,155.489 C409.505,142.408 397.516,131.963 383.372,130.258 C380.852,129.954 378.3,130.017 375.764,129.897 z" fill="#000000"/>
          </g>
          <g id="Bicycle">
            <path d="M390.001,201.503 C407.682,195.005 416.748,175.403 410.25,157.722 C403.752,140.04 384.15,130.974 366.468,137.473 C348.787,143.971 339.721,163.573 346.22,181.255 C352.718,198.936 372.32,208.001 390.001,201.503 z" fill-opacity="0" stroke="#FFFFFF" stroke-width="3" stroke-linejoin="round"/>
            <path d="M388.797,171.893 C390.508,176.548 395.669,178.935 400.324,177.224 C404.979,175.513 407.366,170.352 405.655,165.697 C403.944,161.041 398.784,158.655 394.128,160.366 C389.473,162.077 387.086,167.237 388.797,171.893 z M355.148,184.243 C356.859,188.898 362.02,191.285 366.675,189.574 C371.33,187.863 373.717,182.702 372.006,178.047 C370.295,173.392 365.134,171.004 360.479,172.715 C355.824,174.426 353.437,179.588 355.148,184.243 z" fill-opacity="0" stroke="#FFFFFF" stroke-width="2" stroke-linejoin="round"/>
            <path d="M374.372,177.178 C375.04,178.993 377.052,179.924 378.867,179.257 C380.683,178.59 381.613,176.577 380.946,174.762 C380.692,174.069 380.24,173.504 379.679,173.108 C378.769,172.47 377.572,172.272 376.451,172.684 C374.636,173.351 373.706,175.363 374.372,177.178 z M388.022,160.735 L380.119,172.305" fill-opacity="0" stroke="#FFFFFF" stroke-width="2" stroke-linecap="round" stroke-linejoin="round"/>
            <path d="M386.273,157.286 L366.129,164.69 L363.577,181.145 L373.593,177.471 M379.577,152.165 L384.348,150.412 C384.348,150.412 386.964,150.654 385.127,152.532 C383.291,154.412 384.088,154.78 384.088,154.78 L392.119,165.006 C392.119,165.006 394.349,168.539 397.226,168.795 M375.359,173.328 L366.129,164.69 L364.492,160.237 L368.655,158.467 L360.463,161.717 L360.814,162.672 L364.157,160.961 M379.721,168.6 L378.024,169.224 L376.115,169.925 M377.637,171.773 L378.024,169.224 M378.56,182.145 L375.062,183.431 M376.704,179.878 L376.97,182.73" fill-opacity="0" stroke="#FFFFFF" stroke-width="2" stroke-linecap="round" stroke-linejoin="round"/>
          </g>
          <g id="cyclox">
            <g>
              <path d="M156.063,286.943 C150.015,293.564 142.776,297.796 135.581,300.44 C111.782,309.187 89.35,301.568 81.569,280.398 C73.128,257.429 87.073,235.971 110.594,227.326 C117.236,224.885 126.628,223.945 134.693,225.379 L132.685,242.137 C128.201,241.9 123.745,242.596 120.148,243.918 C111.016,247.274 105.578,255.555 110.46,268.838 C115.646,282.951 127.411,283.339 133.499,281.101 C137.65,279.575 141.395,276.943 143.755,274.82 z" fill="#FFFFFF"/>
              <path d="M125.275,224.721 C132.65,224.988 129.52,224.66 134.693,225.379 L132.685,242.137 C128.201,241.9 123.745,242.596 120.148,243.918 C111.016,247.274 105.578,255.555 110.46,268.838 C115.646,282.951 127.411,283.339 133.499,281.101 C137.65,279.575 141.395,276.943 143.755,274.82 L156.063,286.943 C150.015,293.564 142.776,297.796 135.581,300.44 C111.782,309.187 89.35,301.568 81.569,280.398 C73.128,257.429 87.073,235.971 110.594,227.326 C115.293,225.462 120.306,225.148 125.275,224.721 z M125.51,227.717 C120.75,227.748 116.134,228.693 111.629,230.142 C88.563,238.619 76.867,258.906 84.385,279.363 C91.445,298.572 111.863,305.961 134.546,297.624 C141.234,295.417 146.547,291.473 151.834,286.988 L143.568,278.846 C140.903,281.246 137.727,282.537 134.534,283.917 C130.354,285.453 125.232,285.598 120.616,283.92 C114.861,281.828 110.317,277.145 107.644,269.872 C102.565,256.053 107.418,245.4 119.113,241.102 C122.607,239.878 126.308,239.121 130.024,239.132 L131.365,227.942 L125.51,227.717 z" fill="#000000"/>
            </g>
            <g>
              <path d="M161.752,208.838 C170.647,220.646 179.73,232.542 190.012,248.552 L190.289,248.45 C188.447,229.338 188.219,214.188 188.042,199.176 L210.898,194.702 L205.23,282.695 C204.162,298.164 200.124,314.098 181.029,321.116 L170.928,324.828 L164.673,307.809 L169.516,306.029 C176.435,303.486 184.861,299.918 182.033,275.985 L135.162,222.38 z" fill="#FFFFFF"/>
              <path d="M210.898,194.702 L205.23,282.695 C204.162,298.164 200.124,314.098 181.029,321.116 L170.928,324.828 L164.673,307.809 L169.516,306.029 C176.435,303.486 184.861,299.918 182.033,275.985 L135.161,222.38 L161.752,208.838 C170.647,220.646 179.73,232.542 190.012,248.552 L190.289,248.45 C188.447,229.338 188.219,214.188 188.042,199.176 L210.898,194.702 z M207.654,198.394 L191.073,201.639 C191.131,217.176 191.87,232.691 193.275,248.163 C193.406,249.52 192.604,250.796 191.324,251.266 L191.047,251.368 C189.727,251.853 188.248,251.356 187.488,250.173 C179.307,237.188 170.084,224.912 160.87,212.654 L139.956,223.305 L184.291,274.01 C184.69,274.466 184.941,275.032 185.012,275.633 C186.386,287.263 185.317,295.251 181.975,300.615 C179.346,304.835 176.27,306.743 170.551,308.845 L168.524,309.59 L172.709,320.977 L179.994,318.3 C195.138,312.734 200.917,301.61 202.236,282.502 L207.654,198.394 z" fill="#000000"/>
            </g>
            <g>
              <path d="M300.378,233.904 C294.33,240.525 287.09,244.757 279.895,247.401 C256.096,256.148 233.664,248.529 225.883,227.359 C217.442,204.39 231.387,182.932 254.908,174.287 C261.55,171.846 270.943,170.907 279.008,172.34 L276.999,189.098 C272.516,188.861 268.059,189.557 264.462,190.879 C255.33,194.235 249.892,202.516 254.774,215.799 C259.961,229.912 271.725,230.3 277.813,228.062 C281.964,226.537 285.708,223.905 288.069,221.781 z" fill="#FFFFFF"/>
              <path d="M269.589,171.683 C276.964,171.95 273.834,171.621 279.008,172.34 L276.999,189.098 C272.516,188.861 268.059,189.557 264.462,190.879 C255.33,194.235 249.892,202.516 254.774,215.799 C259.961,229.912 271.725,230.3 277.813,228.062 C281.964,226.537 285.708,223.905 288.069,221.781 L300.378,233.904 C294.33,240.525 287.09,244.757 279.895,247.401 C256.096,256.148 233.664,248.529 225.883,227.359 C217.442,204.39 231.387,182.932 254.908,174.287 C259.608,172.423 264.62,172.109 269.589,171.683 z M269.824,174.679 C265.064,174.709 260.448,175.655 255.943,177.103 C232.878,185.58 221.181,205.868 228.699,226.324 C235.759,245.533 256.177,252.922 278.86,244.585 C285.548,242.378 290.861,238.434 296.148,233.949 L287.882,225.808 C285.217,228.206 282.041,229.498 278.848,230.878 C274.669,232.414 269.546,232.559 264.931,230.882 C259.176,228.79 254.631,224.107 251.958,216.834 C246.879,203.014 251.732,192.361 263.427,188.063 C266.921,186.84 270.622,186.082 274.338,186.093 L275.679,174.903 L269.824,174.679 z" fill="#000000"/>
            </g>
            <g>
              <path d="M274.423,132.091 L302.096,121.921 L339.473,223.62 L311.799,233.791 z" fill="#FFFFFF"/>
              <path d="M302.096,121.921 L339.473,223.62 L311.799,233.79 L274.423,132.091 L302.096,121.921 z M300.315,125.771 L278.273,133.872 L313.58,229.94 L335.622,221.839 L300.315,125.771 z" fill="#000000"/>
            </g>
            <g>
              <path d="M480.832,173.237 L461.02,158.216 L453.435,183.306 L430.127,188.26 L442.916,145.709 L409.999,121.528 L437.507,107.491 L453.739,121.314 L459.092,99.558 L481.396,95.287 L469.776,133.325 L508.895,158.997 z" fill="#FFFFFF"/>
              <path d="M481.396,95.287 L469.776,133.325 L508.895,158.997 L480.832,173.237 L461.02,158.216 L453.435,183.306 L430.127,188.26 L442.916,145.709 L409.999,121.527 L437.507,107.491 L453.739,121.314 L459.092,99.558 L481.396,95.287 z M477.073,99.17 L461.546,102.143 L456.652,122.031 C456.119,124.197 453.493,125.045 451.794,123.598 L437.087,111.074 L415.695,121.989 L444.692,143.291 C445.715,144.043 446.154,145.357 445.789,146.573 L434.458,184.272 L451.077,180.74 L458.148,157.348 C458.753,155.348 461.167,154.563 462.832,155.826 L481.149,169.712 L502.92,158.665 L468.13,135.833 C467.016,135.102 466.518,133.723 466.907,132.449 L477.073,99.17 z" fill="#000000"/>
            </g>
          </g>
        </g>
      </g>
    </g>
  </g>
</svg>
