<?xml version="1.0" encoding="UTF-8"?>
<!DOCTYPE svg PUBLIC "-//W3C//DTD SVG 1.1//EN" "http://www.w3.org/Graphics/SVG/1.1/DTD/svg11.dtd">
<svg version="1.1" xmlns="http://www.w3.org/2000/svg" xmlns:xlink="http://www.w3.org/1999/xlink" x="0" y="0" width="500" height="500" viewBox="0, 0, 500, 500">
  <g id="Background" >
    <rect x="0" y="0" width="500" height="500" fill="#FFFFFF" fill-opacity="0" />
  </g>
  <defs>
    <filter id="Shadow_1">
      <feGaussianBlur in="SourceAlpha" stdDeviation="0"/>
      <feOffset dx="5" dy="5" result="offsetblur"/>
      <feFlood flood-color="#ABA2E2"/>
      <feComposite in2="offsetblur" operator="in"/>
    </filter>
    <filter id="Shadow_2">
      <feGaussianBlur in="SourceAlpha" stdDeviation="0"/>
      <feOffset dx="5" dy="5" result="offsetblur"/>
      <feFlood flood-color="#ABA2E2"/>
      <feComposite in2="offsetblur" operator="in"/>
    </filter>
    <filter id="Shadow_3">
      <feGaussianBlur in="SourceAlpha" stdDeviation="0"/>
      <feOffset dx="5" dy="5" result="offsetblur"/>
      <feFlood flood-color="#ABA2E2"/>
      <feComposite in2="offsetblur" operator="in"/>
    </filter>
    <filter id="Shadow_4">
      <feGaussianBlur in="SourceAlpha" stdDeviation="0"/>
      <feOffset dx="5" dy="5" result="offsetblur"/>
      <feFlood flood-color="#ABA2E2"/>
      <feComposite in2="offsetblur" operator="in"/>
    </filter>
    <filter id="Shadow_5">
      <feGaussianBlur in="SourceAlpha" stdDeviation="0"/>
      <feOffset dx="5" dy="5" result="offsetblur"/>
      <feFlood flood-color="#ABA2E2"/>
      <feComposite in2="offsetblur" operator="in"/>
    </filter>
    <filter id="Shadow_6">
      <feGaussianBlur in="SourceAlpha" stdDeviation="0"/>
      <feOffset dx="5" dy="5" result="offsetblur"/>
      <feFlood flood-color="#ABA2E2"/>
      <feComposite in2="offsetblur" operator="in"/>
    </filter>
    <filter id="Shadow_7">
      <feGaussianBlur in="SourceAlpha" stdDeviation="0"/>
      <feOffset dx="5" dy="5" result="offsetblur"/>
      <feFlood flood-color="#ABA2E2"/>
      <feComposite in2="offsetblur" operator="in"/>
    </filter>
    <filter id="Shadow_8">
      <feGaussianBlur in="SourceAlpha" stdDeviation="0"/>
      <feOffset dx="5" dy="5" result="offsetblur"/>
      <feFlood flood-color="#ABA2E2"/>
      <feComposite in2="offsetblur" operator="in"/>
    </filter>
    <filter id="Shadow_9">
      <feGaussianBlur in="SourceAlpha" stdDeviation="0"/>
      <feOffset dx="5" dy="5" result="offsetblur"/>
      <feFlood flood-color="#ABA2E2"/>
      <feComposite in2="offsetblur" operator="in"/>
    </filter>
  </defs>
  <g id="Layer_1">
    <g>
      <path d="M40.5,15.5 C58.725,15.5 73.5,30.275 73.5,48.5 C73.5,66.725 58.725,81.5 40.5,81.5 C22.275,81.5 7.5,66.725 7.5,48.5 C7.5,30.275 22.275,15.5 40.5,15.5 z M40.5,33.5 C32.216,33.5 25.5,40.216 25.5,48.5 C25.5,56.784 32.216,63.5 40.5,63.5 C48.784,63.5 55.5,56.784 55.5,48.5 C55.5,40.216 48.784,33.5 40.5,33.5 z" filter="url(#Shadow_1)" fill="rgba(0,0,0,0.75)"/>
      <path d="M40.5,72.5 C27.245,72.5 16.5,61.755 16.5,48.5 C16.5,35.245 27.245,24.5 40.5,24.5 C53.755,24.5 64.5,35.245 64.5,48.5 C64.5,61.755 53.755,72.5 40.5,72.5 z" fill-opacity="0" stroke="#4A50CC" stroke-width="18" stroke-linecap="round" stroke-linejoin="round"/>
    </g>
    <g>
      <path d="M217.375,39.5 L217.375,57.5 L72,57.5 L72,39.5 L217.375,39.5 z" filter="url(#Shadow_2)" fill="rgba(0,0,0,0.75)"/>
      <path d="M72,48.5 L217.375,48.5" fill-opacity="0" stroke="#4A50CC" stroke-width="18" stroke-linejoin="round"/>
    </g>
    <g>
      <path d="M215.476,44.627 L220.126,62.016 C124.652,87.545 58.394,149.93 45.541,236.411 L27.736,233.765 C41.746,139.504 113.574,71.875 215.476,44.627 z" filter="url(#Shadow_3)" fill="rgba(0,0,0,0.75)"/>
      <path d="M36.639,235.088 C51.037,138.21 127.415,77.49 217.801,53.321" fill-opacity="0" stroke="#4A50CC" stroke-width="18" stroke-linejoin="round"/>
    </g>
    <g>
      <path d="M276.5,13.5 C281.471,13.5 285.5,17.529 285.5,22.5 L285.5,74.5 C285.5,79.471 281.471,83.5 276.5,83.5 L224.5,83.5 C219.529,83.5 215.5,79.471 215.5,74.5 L215.5,22.5 C215.5,17.529 219.529,13.5 224.5,13.5 L276.5,13.5 z" filter="url(#Shadow_4)" fill="rgba(0,0,0,0.75)"/>
      <path d="M224.5,22.5 L276.5,22.5 L276.5,74.5 L224.5,74.5 L224.5,22.5 z" fill="#FFFFFF"/>
      <path d="M224.5,22.5 L276.5,22.5 L276.5,74.5 L224.5,74.5 L224.5,22.5 z" fill-opacity="0" stroke="#4A50CC" stroke-width="18" stroke-linecap="round" stroke-linejoin="round"/>
    </g>
    <g>
      <path d="M285.049,39.5 L429,39.5 L429,57.5 L285.049,57.5 L285.049,39.5 z" filter="url(#Shadow_5)" fill="rgba(0,0,0,0.75)"/>
      <path d="M285.05,48.5 L429,48.5" fill-opacity="0" stroke="#4A50CC" stroke-width="18" stroke-linejoin="round"/>
    </g>
    <g>
      <path d="M460.5,15.5 C478.725,15.5 493.5,30.275 493.5,48.5 C493.5,66.725 478.725,81.5 460.5,81.5 C442.275,81.5 427.5,66.725 427.5,48.5 C427.5,30.275 442.275,15.5 460.5,15.5 z M460.5,33.5 C452.216,33.5 445.5,40.216 445.5,48.5 C445.5,56.784 452.216,63.5 460.5,63.5 C468.784,63.5 475.5,56.784 475.5,48.5 C475.5,40.216 468.784,33.5 460.5,33.5 z" filter="url(#Shadow_6)" fill="rgba(0,0,0,0.75)"/>
      <path d="M460.5,72.5 C447.245,72.5 436.5,61.755 436.5,48.5 C436.5,35.245 447.245,24.5 460.5,24.5 C473.755,24.5 484.5,35.245 484.5,48.5 C484.5,61.755 473.755,72.5 460.5,72.5 z" fill-opacity="0" stroke="#4A50CC" stroke-width="18" stroke-linecap="round" stroke-linejoin="round"/>
    </g>
    <g>
      <path d="M52.5,231.5 C57.471,231.5 61.5,235.529 61.5,240.5 L61.5,276.5 C61.5,281.471 57.471,285.5 52.5,285.5 L16.5,285.5 C11.529,285.5 7.5,281.471 7.5,276.5 L7.5,240.5 C7.5,235.529 11.529,231.5 16.5,231.5 L52.5,231.5 z M43.5,249.5 L25.5,249.5 L25.5,267.5 L43.5,267.5 L43.5,249.5 z" filter="url(#Shadow_7)" fill="rgba(0,0,0,0.75)"/>
      <path d="M16.5,240.5 L52.5,240.5 L52.5,276.5 L16.5,276.5 L16.5,240.5 z" fill-opacity="0" stroke="#4A50CC" stroke-width="18" stroke-linecap="round" stroke-linejoin="round"/>
    </g>
    <g>
      <path d="M484.5,231.5 C489.471,231.5 493.5,235.529 493.5,240.5 L493.5,276.5 C493.5,281.471 489.471,285.5 484.5,285.5 L448.5,285.5 C443.529,285.5 439.5,281.471 439.5,276.5 L439.5,240.5 C439.5,235.529 443.529,231.5 448.5,231.5 L484.5,231.5 z M475.5,249.5 L457.5,249.5 L457.5,267.5 L475.5,267.5 L475.5,249.5 z" filter="url(#Shadow_8)" fill="rgba(0,0,0,0.75)"/>
      <path d="M448.5,240.5 L484.5,240.5 L484.5,276.5 L448.5,276.5 L448.5,240.5 z" fill-opacity="0" stroke="#4A50CC" stroke-width="18" stroke-linecap="round" stroke-linejoin="round"/>
    </g>
    <g>
      <path d="M286.227,42.615 C380.767,58.414 451.692,133.765 472.962,233.083 L455.361,236.853 C435.565,144.42 370.114,74.883 283.26,60.369 L286.227,42.615 z" filter="url(#Shadow_9)" fill="rgba(0,0,0,0.75)"/>
      <path d="M284.743,51.492 C379.428,67.315 444.618,143.714 464.161,234.968" fill-opacity="0" stroke="#4A50CC" stroke-width="18" stroke-linejoin="round"/>
    </g>
    <path d="M328.5,489.202 L328.5,420.5 L172.5,420.5 L172.5,489.202" fill-opacity="0" stroke="#E46161" stroke-width="15" stroke-linecap="round" stroke-linejoin="round"/>
    <g>
      <g>
        <g>
          <path d="M192.667,358.126 C192.667,358.126 166.803,359.758 181.073,288.5 C190.581,241.02 250.638,150.5 250.638,150.5 C250.638,150.5 310.276,239.977 321.987,290.5 C338.041,359.758 308.609,358.126 308.609,358.126" fill="#FFFFFF"/>
          <path d="M192.667,358.126 C192.667,358.126 166.803,359.758 181.073,288.5 C190.581,241.02 250.638,150.5 250.638,150.5 C250.638,150.5 310.276,239.977 321.987,290.5 C338.041,359.758 308.609,358.126 308.609,358.126" fill-opacity="0" stroke="#E46161" stroke-width="13" stroke-linecap="round" stroke-linejoin="round"/>
        </g>
        <path d="M250.638,150.5 L220.315,252.5" fill-opacity="0" stroke="#E46161" stroke-width="10" stroke-linecap="round"/>
        <path d="M250.638,150.5 L250.638,252.5" fill-opacity="0" stroke="#E46161" stroke-width="10" stroke-linecap="round"/>
        <path d="M250.638,150.5 L284.529,252.5" fill-opacity="0" stroke="#E46161" stroke-width="10" stroke-linecap="round"/>
      </g>
      <path d="M308.609,420.5 L308.609,359.758 L192.667,359.758 L192.667,420.5" fill-opacity="0" stroke="#E46161" stroke-width="15" stroke-linecap="round" stroke-linejoin="round"/>
    </g>
  </g>
</svg>
