<?xml version="1.0" encoding="UTF-8"?>
<!DOCTYPE svg PUBLIC "-//W3C//DTD SVG 1.1//EN" "http://www.w3.org/Graphics/SVG/1.1/DTD/svg11.dtd">
<svg version="1.1" xmlns="http://www.w3.org/2000/svg" xmlns:xlink="http://www.w3.org/1999/xlink" x="0" y="0" width="500" height="500" viewBox="0, 0, 500, 500">
  <g id="Background">
    <rect x="0" y="0" width="500" height="500" fill="#FFFFFF" fill-opacity="0"/>
  </g>
  <g id="Layer_1">
    <path d="M54.3,80 L440.7,80 C461.024,80 477.5,96.339 477.5,116.495 L477.5,397.505 C477.5,417.661 461.024,434 440.7,434 L54.3,434 C33.976,434 17.5,417.661 17.5,397.505 L17.5,116.495 C17.5,96.339 33.976,80 54.3,80 z" fill-opacity="0" stroke="#4A50CC" stroke-width="16"/>
    <path d="M57.175,79.5 L436.825,79.5 C459.013,79.5 477,90.649 477,104.402 L477,143 L17,143 L17,104.402 C17,90.649 34.987,79.5 57.175,79.5 z" fill="#4A50CC"/>
    <path d="M334.146,105 L460.248,105 C465.153,105 469.129,106.782 469.129,108.98 L469.129,144 L325.265,144 L325.265,108.98 C325.265,106.782 329.241,105 334.146,105 z" fill="#FFFFFF"/>
    <path d="M50,125 C44.477,125 40,120.523 40,115 C40,109.477 44.477,105 50,105 C55.523,105 60,109.477 60,115 C60,120.523 55.523,125 50,125 z" fill="#E46161"/>
    <path d="M80,125 C74.477,125 70,120.523 70,115 C70,109.477 74.477,105 80,105 C85.523,105 90,109.477 90,115 C90,120.523 85.523,125 80,125 z" fill="#FFFFFF"/>
    <path d="M110,125 C104.477,125 100,120.523 100,115 C100,109.477 104.477,105 110,105 C115.523,105 120,109.477 120,115 C120,120.523 115.523,125 110,125 z" fill="#FFFFFF"/>
    <text transform="matrix(1, 0, 0, 1, 247.598, 259.808)">
      <tspan x="-166.293" y="37.757" font-family="Chalkboard" font-size="140" kerning="10" fill="#000000">www</tspan>
    </text>
  </g>
</svg>
