<?xml version="1.0" encoding="UTF-8"?>
<!DOCTYPE svg PUBLIC "-//W3C//DTD SVG 1.1//EN" "http://www.w3.org/Graphics/SVG/1.1/DTD/svg11.dtd">
<svg version="1.1" xmlns="http://www.w3.org/2000/svg" xmlns:xlink="http://www.w3.org/1999/xlink" x="0" y="0" width="500" height="500" viewBox="0, 0, 500, 500">
  <g id="Background">
    <rect x="0" y="0" width="500" height="500" fill="#FFFFFF" fill-opacity="0"/>
  </g>
  <defs>
    <clipPath id="Clip_1">
      <path d="M200.908,168.703 L396.796,168.703 L396.796,353.879 L200.908,353.879 z M378.047,183.887 L378.047,183.888 C381.108,185.418 380.167,184.339 381.405,186.567 C382.104,188.662 381.026,190.752 378.941,191.494 L322.879,211.414 L318.566,212.852 L318.566,267.271 L318.772,268.093 L335.405,334.63 C335.961,336.855 334.616,338.737 332.325,338.737 C330.892,338.737 329.488,337.831 329.039,336.477 L305.629,266.656 C305.638,266.451 305.638,266.246 305.629,266.04 C305.883,262.624 303.47,259.584 300.084,259.058 C300.016,259.057 299.947,259.057 299.879,259.058 C299.542,258.963 299.199,258.894 298.852,258.853 C298.783,258.852 298.715,258.852 298.646,258.853 C298.299,258.894 297.956,258.963 297.62,259.058 C297.273,259.099 296.929,259.168 296.593,259.264 C293.619,260.221 291.73,263.14 292.075,266.244 L268.664,336.478 C268.216,337.831 266.812,338.737 265.379,338.737 C263.087,338.737 261.743,336.855 262.298,334.628 L278.932,268.093 L279.137,267.271 L279.137,212.852 L274.825,211.414 L218.762,191.496 C216.678,190.752 215.6,188.662 216.298,186.567 C216.832,184.967 218.065,183.991 219.584,183.898 C220.091,183.867 220.693,183.925 221.227,184.101 L270.512,200.325 L271.539,200.735 L326.164,200.735 L327.191,200.325 L376.477,184.101 L378.047,183.887 z M377.212,170.703 C373.263,171.179 374.929,170.807 372.164,171.574 L324.316,187.592 L273.387,187.592 L225.539,171.576 C223.323,170.837 220.988,170.585 218.762,170.753 L218.762,170.755 C212.086,171.264 205.988,175.604 203.771,182.255 C200.856,191.003 205.566,200.723 214.244,203.816 L265.994,222.298 L265.994,265.628 L249.566,331.549 C247.02,341.757 254.856,351.88 265.379,351.879 C272.422,351.88 278.767,347.276 280.986,340.584 L298.852,286.986 L316.718,340.585 C318.937,347.276 325.281,351.88 332.325,351.879 C342.848,351.88 350.684,341.757 348.137,331.548 L331.709,265.628 L331.709,222.298 L383.459,203.817 C392.138,200.723 396.848,191.003 393.932,182.255 C391.118,175.093 384.916,170.833 377.212,170.703 z"/>
    </clipPath>
    <filter id="Shadow_2">
      <feGaussianBlur in="SourceAlpha" stdDeviation="0.5"/>
      <feOffset dx="0" dy="0" result="offsetblur"/>
      <feFlood flood-color="#E76464"/>
      <feComposite in2="offsetblur" operator="in"/>
    </filter>
    <clipPath id="Clip_3">
      <path d="M270.566,119.879 L327.137,119.879 L327.137,176.451 L270.566,176.451 z M298.852,135.022 C306.19,135.022 311.995,140.827 311.995,148.165 C311.995,155.503 306.19,161.308 298.852,161.308 C291.514,161.308 285.709,155.503 285.709,148.165 C285.709,140.827 291.514,135.022 298.852,135.022 z M298.852,121.879 C284.412,121.88 272.566,133.726 272.566,148.165 C272.566,162.605 284.412,174.451 298.852,174.451 C313.292,174.451 325.138,162.605 325.137,148.165 C325.138,133.726 313.292,121.88 298.852,121.879 z"/>
    </clipPath>
    <filter id="Shadow_4">
      <feGaussianBlur in="SourceAlpha" stdDeviation="0.5"/>
      <feOffset dx="0" dy="0" result="offsetblur"/>
      <feFlood flood-color="#E76464"/>
      <feComposite in2="offsetblur" operator="in"/>
    </filter>
  </defs>
  <g id="Layer_1">
    <g>
      <path d="M175.219,15.36 L423.484,15.36 C451.578,15.36 474.352,34.179 474.352,57.392 L474.352,433.468 C474.352,456.682 451.578,475.5 423.484,475.5 L175.219,475.5 C147.126,475.5 124.352,456.682 124.352,433.468 L124.352,57.392 C124.352,34.179 147.126,15.36 175.219,15.36 z" fill-opacity="0" stroke="#4A50CC" stroke-width="16"/>
      <path d="M292.352,58.422 L306.352,58.422" fill-opacity="0" stroke="#4A50CC" stroke-width="10" stroke-linecap="round"/>
      <path d="M298.852,448.349 C287.557,448.349 278.401,439.193 278.401,427.898 C278.401,416.604 287.557,407.448 298.852,407.448 C310.146,407.448 319.302,416.604 319.302,427.898 C319.302,439.193 310.146,448.349 298.852,448.349 z" fill="#4A50CC"/>
    </g>
    <g>
      <g>
        <path d="M218.762,170.753 C220.988,170.585 223.323,170.837 225.539,171.576 L273.387,187.592 L324.316,187.592 L372.164,171.574 C381.031,168.62 390.977,173.388 393.932,182.255 C396.848,191.003 392.138,200.723 383.459,203.817 L331.709,222.298 L331.709,265.628 L348.137,331.548 C350.684,341.757 342.848,351.88 332.325,351.879 C325.281,351.88 318.937,347.276 316.718,340.585 L298.852,286.986 L280.986,340.584 C278.767,347.276 272.422,351.88 265.379,351.879 C254.856,351.88 247.02,341.757 249.566,331.549 L265.994,265.628 L265.994,222.298 L214.244,203.816 C205.566,200.723 200.856,191.003 203.771,182.255 C205.988,175.604 212.086,171.264 218.762,170.755 L218.762,170.753 z M378.047,183.887 L376.477,184.101 L327.191,200.325 L326.164,200.735 L271.539,200.735 L270.512,200.325 L221.227,184.101 C220.693,183.925 220.091,183.867 219.584,183.898 C218.065,183.991 216.832,184.967 216.298,186.567 C215.6,188.662 216.678,190.752 218.762,191.496 L274.825,211.414 L279.137,212.852 L279.137,267.271 L278.932,268.093 L262.298,334.628 C261.743,336.855 263.087,338.737 265.379,338.737 C266.812,338.737 268.216,337.831 268.664,336.478 L292.075,266.244 C291.73,263.14 293.619,260.221 296.593,259.264 C296.929,259.168 297.273,259.099 297.62,259.058 C297.956,258.963 298.299,258.894 298.646,258.853 C298.715,258.852 298.783,258.852 298.852,258.853 C299.199,258.894 299.542,258.963 299.879,259.058 C299.947,259.057 300.016,259.057 300.084,259.058 C303.47,259.584 305.883,262.624 305.629,266.04 C305.638,266.246 305.638,266.451 305.629,266.656 L329.039,336.477 C329.488,337.831 330.892,338.737 332.325,338.737 C334.616,338.737 335.961,336.855 335.405,334.63 L318.772,268.093 L318.566,267.271 L318.566,212.852 L322.879,211.414 L378.941,191.494 C381.026,190.752 382.104,188.662 381.405,186.567 C380.167,184.339 381.108,185.418 378.047,183.888 L378.047,183.887 z" fill="#E46161"/>
        <g>
          <path d="M377.212,170.703 C384.916,170.833 391.118,175.093 393.932,182.255 C396.848,191.003 392.138,200.723 383.459,203.817 L331.709,222.298 L331.709,265.628 L348.137,331.548 C350.684,341.757 342.848,351.88 332.325,351.879 C325.281,351.88 318.937,347.276 316.718,340.585 L298.852,286.986 L280.986,340.584 C278.767,347.276 272.422,351.88 265.379,351.879 C254.856,351.88 247.02,341.757 249.566,331.549 L265.994,265.628 L265.994,222.298 L214.244,203.816 C205.566,200.723 200.856,191.003 203.771,182.255 C205.988,175.604 212.086,171.264 218.762,170.755 L218.762,170.753 C220.988,170.585 223.323,170.837 225.539,171.576 L273.387,187.592 L324.316,187.592 L372.164,171.574 C374.929,170.807 373.263,171.179 377.212,170.703 z M378.047,183.887 L376.477,184.101 L327.191,200.325 L326.164,200.735 L271.539,200.735 L270.512,200.325 L221.227,184.101 C220.693,183.925 220.091,183.867 219.584,183.898 C218.065,183.991 216.832,184.967 216.298,186.567 C215.6,188.662 216.678,190.752 218.762,191.496 L274.825,211.414 L279.137,212.852 L279.137,267.271 L278.932,268.093 L262.298,334.628 C261.743,336.855 263.087,338.737 265.379,338.737 C266.812,338.737 268.216,337.831 268.664,336.478 L292.075,266.244 C291.73,263.14 293.619,260.221 296.593,259.264 C296.929,259.168 297.273,259.099 297.62,259.058 C297.956,258.963 298.299,258.894 298.646,258.853 C298.715,258.852 298.783,258.852 298.852,258.853 C299.199,258.894 299.542,258.963 299.879,259.058 C299.947,259.057 300.016,259.057 300.084,259.058 C303.47,259.584 305.883,262.624 305.629,266.04 C305.638,266.246 305.638,266.451 305.629,266.656 L329.039,336.477 C329.488,337.831 330.892,338.737 332.325,338.737 C334.616,338.737 335.961,336.855 335.405,334.63 L318.772,268.093 L318.566,267.271 L318.566,212.852 L322.879,211.414 L378.941,191.494 C381.026,190.752 382.104,188.662 381.405,186.567 C380.167,184.339 381.108,185.418 378.047,183.888 L378.047,183.887 z" fill="rgba(0,0,0,0.75)" clip-path="url(#Clip_1)" filter="url(#Shadow_2)"/>
          <path d="M377.208,170.953 C384.825,171.082 390.928,175.292 393.699,182.346 C396.57,190.957 391.921,200.535 383.375,203.581 L331.625,222.063 C331.525,222.098 331.459,222.192 331.459,222.298 L331.459,265.628 L347.895,331.608 C350.405,341.672 342.673,351.63 332.325,351.629 C325.396,351.63 319.143,347.101 316.955,340.506 L299.089,286.907 C299.013,286.679 298.69,286.679 298.615,286.907 L280.749,340.505 C278.561,347.101 272.308,351.63 265.379,351.629 C255.031,351.63 247.298,341.672 249.809,331.61 L266.237,265.689 L266.244,222.298 C266.244,222.192 266.178,222.098 266.078,222.063 L214.328,203.58 C205.783,200.535 201.134,190.957 204.009,182.334 C206.14,175.941 212.026,171.52 218.781,171.004 C218.915,170.994 219.017,170.88 219.012,170.746 L219.012,170.745 L218.762,170.753 L218.781,171.003 C221.034,170.832 223.329,171.103 225.46,171.813 L273.308,187.829 L324.316,187.842 L372.244,171.811 C372.621,171.707 373.509,171.456 373.63,171.423 C373.926,171.342 374.087,171.306 374.281,171.277 C374.375,171.263 375.998,171.102 377.242,170.952 z M377.183,170.455 C375.948,170.604 374.316,170.766 374.208,170.782 C373.992,170.814 373.812,170.855 373.498,170.94 C373.375,170.974 372.486,171.226 372.097,171.333 L324.237,187.355 L273.387,187.342 L225.619,171.339 C223.423,170.607 221.061,170.329 218.743,170.504 C218.61,170.514 218.508,170.628 218.512,170.762 L218.512,170.763 L218.762,170.755 L218.743,170.505 C211.791,171.036 205.73,175.588 203.534,182.175 C200.574,191.057 205.358,200.914 214.16,204.051 L265.91,222.533 L265.744,222.298 L265.744,265.628 L249.324,331.489 C246.735,341.866 254.705,352.13 265.379,352.129 C272.524,352.13 278.968,347.462 281.223,340.662 L299.089,287.065 L298.615,287.065 L316.48,340.664 C318.736,347.463 325.18,352.13 332.325,352.129 C342.999,352.13 350.969,341.866 348.38,331.487 L331.951,265.568 L331.959,222.298 L331.793,222.533 L383.543,204.052 C392.346,200.914 397.13,191.057 394.169,182.175 C391.319,174.92 385.035,170.585 377.217,170.453 z M378.013,183.639 L376.443,183.854 L327.113,200.087 L326.071,200.503 L271.539,200.485 L270.605,200.093 L221.305,183.864 C220.768,183.687 220.139,183.613 219.569,183.648 C217.933,183.748 216.622,184.806 216.061,186.488 C215.324,188.7 216.453,190.938 218.678,191.731 L274.741,211.65 L279.058,213.089 L278.887,212.852 L278.887,267.271 L278.689,268.032 L262.055,334.568 C261.456,336.973 262.944,338.987 265.379,338.987 C266.947,338.987 268.427,337.988 268.901,336.557 L292.312,266.323 L292.323,266.217 C291.991,263.231 293.809,260.423 296.669,259.501 C296.985,259.412 297.315,259.346 297.649,259.306 C298.011,259.207 298.342,259.141 298.676,259.101 C298.716,259.102 298.783,259.102 298.849,259.103 C299.157,259.141 299.487,259.207 299.81,259.299 C299.948,259.307 300.015,259.307 300.081,259.308 C303.303,259.811 305.624,262.735 305.379,266.021 C305.388,266.25 305.388,266.447 305.379,266.645 L328.802,336.556 C329.277,337.988 330.756,338.987 332.325,338.987 C334.759,338.987 336.248,336.973 335.648,334.569 L319.014,268.032 L318.809,267.211 L318.816,212.852 L318.645,213.089 L322.958,211.651 L379.025,191.73 C381.251,190.938 382.38,188.7 381.642,186.488 C381.439,186.114 381.052,185.382 381.006,185.3 C380.848,185.022 380.731,184.879 380.547,184.757 C380.432,184.681 379.073,184.121 378.159,183.664 L378.047,183.888 L378.297,183.874 L378.297,183.872 C378.288,183.727 378.158,183.619 378.013,183.639 z M378.081,184.134 L378.047,183.887 L377.797,183.901 L377.797,183.902 C377.802,183.991 377.855,184.071 377.935,184.111 C378.888,184.588 380.204,185.129 380.271,185.174 C380.378,185.245 380.449,185.331 380.571,185.547 C380.613,185.621 380.999,186.35 381.187,186.688 C381.819,188.597 380.829,190.557 378.857,191.259 L322.795,211.179 L318.487,212.614 C318.385,212.648 318.316,212.744 318.316,212.852 L318.316,267.271 L318.529,268.153 L335.163,334.69 C335.685,336.784 334.427,338.487 332.325,338.487 C330.966,338.487 329.682,337.62 329.276,336.398 L305.866,266.577 C305.888,266.455 305.888,266.242 305.878,266.028 C306.142,262.512 303.637,259.357 300.122,258.811 C300.017,258.807 299.946,258.807 299.876,258.808 C299.598,258.719 299.242,258.647 298.881,258.604 C298.784,258.602 298.714,258.602 298.644,258.603 C298.256,258.647 297.9,258.719 297.551,258.818 C297.23,258.853 296.874,258.924 296.525,259.023 C293.429,260.02 291.468,263.05 291.826,266.272 L291.838,266.165 L268.427,336.399 C268.022,337.62 266.738,338.487 265.379,338.487 C263.276,338.487 262.018,336.784 262.54,334.689 L279.174,268.153 L279.38,267.332 L279.387,212.852 C279.387,212.744 279.318,212.648 279.216,212.614 L274.904,211.177 L218.846,191.26 C216.874,190.557 215.885,188.597 216.535,186.646 C217.033,185.153 218.172,184.234 219.599,184.147 C220.108,184.116 220.674,184.182 221.148,184.339 L270.434,200.562 L271.447,200.967 L326.164,200.985 L327.284,200.557 L376.555,184.339 L378.081,184.134 z" fill="rgba(0,0,0,0.75)" clip-path="url(#Clip_1)" filter="url(#Shadow_2)"/>
        </g>
      </g>
      <g>
        <path d="M298.852,121.879 C313.292,121.88 325.138,133.726 325.137,148.165 C325.138,162.605 313.292,174.451 298.852,174.451 C284.412,174.451 272.566,162.605 272.566,148.165 C272.566,133.726 284.412,121.88 298.852,121.879 z M298.852,135.022 C291.514,135.022 285.709,140.827 285.709,148.165 C285.709,155.503 291.514,161.308 298.852,161.308 C306.19,161.308 311.995,155.503 311.995,148.165 C311.995,140.827 306.19,135.022 298.852,135.022 z" fill="#E46161"/>
        <g>
          <path d="M298.852,121.879 C313.292,121.88 325.138,133.726 325.137,148.165 C325.138,162.605 313.292,174.451 298.852,174.451 C284.412,174.451 272.566,162.605 272.566,148.165 C272.566,133.726 284.412,121.88 298.852,121.879 z M298.852,135.022 C291.514,135.022 285.709,140.827 285.709,148.165 C285.709,155.503 291.514,161.308 298.852,161.308 C306.19,161.308 311.995,155.503 311.995,148.165 C311.995,140.827 306.19,135.022 298.852,135.022 z" fill="rgba(0,0,0,0.75)" clip-path="url(#Clip_3)" filter="url(#Shadow_4)"/>
          <path d="M298.852,122.129 C313.153,122.13 324.888,133.864 324.887,148.165 C324.888,162.467 313.153,174.201 298.852,174.201 C284.55,174.201 272.816,162.467 272.816,148.165 C272.816,133.864 284.55,122.13 298.852,122.129 C299.079,122.129 299.189,121.85 299.021,121.695 L299.021,121.695 L298.852,121.879 L298.852,122.129 z M298.852,121.629 C298.624,121.629 298.515,121.909 298.682,122.063 L298.682,122.063 L298.852,121.879 L298.852,121.629 C284.274,121.63 272.316,133.588 272.316,148.165 C272.316,162.743 284.274,174.701 298.852,174.701 C313.43,174.701 325.388,162.743 325.387,148.165 C325.388,133.588 313.43,121.63 298.852,121.629 z M298.852,134.772 C291.376,134.772 285.459,140.689 285.459,148.165 C285.459,155.642 291.376,161.558 298.852,161.558 C306.328,161.558 312.245,155.642 312.245,148.165 C312.245,140.689 306.328,134.772 298.852,134.772 L298.852,135.022 L299.023,134.841 L299.023,134.841 L298.852,134.772 z M298.852,135.272 L298.852,135.022 L298.68,135.204 L298.68,135.204 L298.852,135.272 C306.052,135.272 311.745,140.965 311.745,148.165 C311.745,155.365 306.052,161.058 298.852,161.058 C291.652,161.058 285.959,155.365 285.959,148.165 C285.959,140.965 291.652,135.272 298.852,135.272 z" fill="rgba(0,0,0,0.75)" clip-path="url(#Clip_3)" filter="url(#Shadow_4)"/>
        </g>
      </g>
    </g>
    <g>
      <g>
        <path d="M61.923,255.335 L148.684,255.335 C158.501,255.335 166.46,264.339 166.46,275.446 L166.46,455.389 C166.46,466.496 158.501,475.5 148.684,475.5 L61.923,475.5 C52.105,475.5 44.146,466.496 44.146,455.389 L44.146,275.446 C44.146,264.339 52.105,255.335 61.923,255.335 z" fill="#FFFFFF"/>
        <path d="M61.923,255.335 L148.684,255.335 C158.501,255.335 166.46,264.339 166.46,275.446 L166.46,455.389 C166.46,466.496 158.501,475.5 148.684,475.5 L61.923,475.5 C52.105,475.5 44.146,466.496 44.146,455.389 L44.146,275.446 C44.146,264.339 52.105,255.335 61.923,255.335 z" fill-opacity="0" stroke="#4A50CC" stroke-width="16"/>
      </g>
      <path d="M96.445,275.938 L114.161,275.938" fill-opacity="0" stroke="#4A50CC" stroke-width="10" stroke-linecap="round"/>
      <path d="M104.803,457.463 C99.399,457.463 95.018,453.082 95.018,447.678 C95.018,442.274 99.399,437.893 104.803,437.893 C110.207,437.893 114.588,442.274 114.588,447.678 C114.588,453.082 110.207,457.463 104.803,457.463 z" fill="#4A50CC"/>
    </g>
  </g>
</svg>
