<?xml version="1.0" encoding="UTF-8"?>
<!DOCTYPE svg PUBLIC "-//W3C//DTD SVG 1.1//EN" "http://www.w3.org/Graphics/SVG/1.1/DTD/svg11.dtd">
<svg version="1.1" xmlns="http://www.w3.org/2000/svg" xmlns:xlink="http://www.w3.org/1999/xlink" x="0" y="0" width="500" height="500" viewBox="0, 0, 500, 500">
  <g id="Background">
    <rect x="0" y="0" width="500" height="500" fill="#FFFFFF" fill-opacity="0"/>
  </g>
  <defs>
    <clipPath id="Clip_1">
      <path d="M45.651,208.248 L454.349,208.248 L454.349,414.707 L45.651,414.707 z M248.686,221.248 C246.513,221.279 244.337,221.214 242.168,221.34 C232.222,221.921 222.32,224.29 213.385,228.734 L58.69,308.628 C44.085,316.171 42.554,326.155 55.269,330.928 L237.148,399.201 C249.864,403.974 272.01,401.728 286.615,394.186 L441.31,314.291 C455.915,306.749 457.446,296.765 444.731,291.992 L262.852,223.719 C258.258,222.219 253.542,221.305 248.686,221.248 z"/>
    </clipPath>
    <filter id="Shadow_2">
      <feGaussianBlur in="SourceAlpha" stdDeviation="0"/>
      <feOffset dx="0" dy="12" result="offsetblur"/>
      <feFlood flood-color="#FFFFFF"/>
      <feComposite in2="offsetblur" operator="in"/>
    </filter>
    <clipPath id="Clip_3">
      <path d="M45.651,144.063 L454.349,144.063 L454.349,350.522 L45.651,350.522 z M248.686,157.063 C246.513,157.094 244.337,157.029 242.168,157.155 C232.222,157.736 222.32,160.105 213.385,164.549 L58.69,244.443 C44.085,251.986 42.554,261.97 55.269,266.742 L237.148,335.016 C249.864,339.789 272.01,337.543 286.615,330 L441.31,250.106 C455.915,242.563 457.446,232.58 444.731,227.807 L262.852,159.534 C258.258,158.034 253.542,157.12 248.686,157.063 z"/>
    </clipPath>
    <filter id="Shadow_4">
      <feGaussianBlur in="SourceAlpha" stdDeviation="0"/>
      <feOffset dx="0" dy="12" result="offsetblur"/>
      <feFlood flood-color="#FFFFFF"/>
      <feComposite in2="offsetblur" operator="in"/>
    </filter>
    <clipPath id="Clip_5">
      <path d="M45.651,79.878 L454.349,79.878 L454.349,286.337 L45.651,286.337 z M248.686,92.878 C246.513,92.908 244.337,92.843 242.168,92.97 C232.222,93.551 222.32,95.92 213.385,100.364 L58.69,180.258 C44.085,187.801 42.554,197.785 55.269,202.557 L237.148,270.83 C249.864,275.603 272.01,273.358 286.615,265.815 L441.31,185.921 C455.915,178.378 457.446,168.395 444.731,163.622 L262.852,95.349 C258.258,93.849 253.542,92.935 248.686,92.878 z"/>
    </clipPath>
    <filter id="Shadow_6">
      <feGaussianBlur in="SourceAlpha" stdDeviation="0"/>
      <feOffset dx="0" dy="12" result="offsetblur"/>
      <feFlood flood-color="#FFFFFF"/>
      <feComposite in2="offsetblur" operator="in"/>
    </filter>
    <clipPath id="Clip_7">
      <path d="M45.651,15.692 L454.349,15.692 L454.349,222.152 L45.651,222.152 z M248.686,28.692 C246.513,28.723 244.337,28.658 242.168,28.785 C232.222,29.366 222.32,31.735 213.385,36.179 L58.69,116.073 C44.085,123.616 42.554,133.599 55.269,138.372 L237.148,206.645 C249.864,211.418 272.01,209.173 286.615,201.63 L441.31,121.736 C455.915,114.193 457.446,104.209 444.731,99.436 L262.852,31.163 C258.258,29.664 253.542,28.749 248.686,28.692 z"/>
    </clipPath>
    <filter id="Shadow_8">
      <feGaussianBlur in="SourceAlpha" stdDeviation="0"/>
      <feOffset dx="0" dy="12" result="offsetblur"/>
      <feFlood flood-color="#FFFFFF"/>
      <feComposite in2="offsetblur" operator="in"/>
    </filter>
    <clipPath id="Clip_9">
      <path d="M167.302,296.276 L333.698,296.276 L333.698,497.833 L167.302,497.833 z M250.5,343.396 C259.716,343.396 267.386,351.574 267.386,361.8 L267.386,380.207 L233.614,380.207 L233.614,361.8 C233.614,351.574 241.284,343.396 250.5,343.396 z M250.5,304.276 C220.461,304.276 196.188,330.164 196.188,361.8 L196.188,380.207 L194.558,380.207 C182.734,380.207 173.302,390.267 173.302,402.48 L173.302,467.563 C173.302,479.774 182.734,489.833 194.558,489.833 L306.441,489.833 C318.266,489.833 327.698,479.774 327.698,467.563 L327.698,402.48 C327.698,390.267 318.266,380.207 306.441,380.207 L304.812,380.207 L304.812,361.8 C304.812,330.164 280.539,304.276 250.5,304.276 z"/>
    </clipPath>
    <filter id="Shadow_10">
      <feGaussianBlur in="SourceAlpha" stdDeviation="2.5"/>
      <feOffset dx="0" dy="2" result="offsetblur"/>
      <feFlood flood-color="#000000"/>
      <feComposite in2="offsetblur" operator="in"/>
    </filter>
    <clipPath id="Clip_11">
      <path d="M238.5,422.564 L262.5,422.564 L262.5,476.276 L238.5,476.276 z M250.5,430.564 C247.186,430.564 244.5,433.251 244.5,436.564 L244.5,462.276 C244.5,465.59 247.186,468.276 250.5,468.276 C253.814,468.276 256.5,465.59 256.5,462.276 L256.5,436.564 C256.5,433.251 253.814,430.564 250.5,430.564 z"/>
    </clipPath>
    <filter id="Shadow_12">
      <feGaussianBlur in="SourceAlpha" stdDeviation="2.5"/>
      <feOffset dx="0" dy="2" result="offsetblur"/>
      <feFlood flood-color="#000000"/>
      <feComposite in2="offsetblur" operator="in"/>
    </filter>
  </defs>
  <g id="Layer_1">
    <g>
      <g>
        <path d="M248.686,221.248 C253.542,221.305 258.258,222.219 262.852,223.719 L444.731,291.992 C457.446,296.765 455.915,306.749 441.31,314.291 L286.615,394.186 C272.01,401.728 249.864,403.974 237.148,399.201 L55.269,330.928 C42.554,326.155 44.085,316.171 58.69,308.628 L213.385,228.734 C222.32,224.29 232.222,221.921 242.168,221.34 C244.337,221.214 246.513,221.279 248.686,221.248 z" clip-path="url(#Clip_1)" filter="url(#Shadow_2)" fill="rgba(0,0,0,1)"/>
        <path d="M262.852,223.719 L444.731,291.992 C457.446,296.765 455.915,306.749 441.31,314.291 L286.615,394.186 C272.01,401.728 249.864,403.974 237.148,399.201 L55.269,330.928 C42.554,326.155 44.085,316.171 58.69,308.628 L213.385,228.734 C227.99,221.191 250.136,218.946 262.852,223.719 z" fill="#FFFFFF"/>
        <path d="M248.686,221.248 C253.542,221.305 258.258,222.219 262.852,223.719 L444.731,291.992 C457.446,296.765 455.915,306.749 441.31,314.291 L286.615,394.186 C272.01,401.728 249.864,403.974 237.148,399.201 L55.269,330.928 C42.554,326.155 44.085,316.171 58.69,308.628 L213.385,228.734 C222.32,224.29 232.222,221.921 242.168,221.34 C244.337,221.214 246.513,221.279 248.686,221.248 z M246.938,241.181 C238.529,241.249 230.173,242.882 222.563,246.504 L81.439,319.389 L244.177,380.476 C251.286,383.145 267.613,381.489 277.437,376.416 L418.56,303.531 L255.823,242.443 C252.978,241.36 249.928,241.338 246.938,241.181 z" fill="#4A50CC"/>
      </g>
      <g>
        <path d="M248.686,157.063 C253.542,157.12 258.258,158.034 262.852,159.534 L444.731,227.807 C457.446,232.58 455.915,242.563 441.31,250.106 L286.615,330 C272.01,337.543 249.864,339.789 237.148,335.016 L55.269,266.742 C42.554,261.97 44.085,251.986 58.69,244.443 L213.385,164.549 C222.32,160.105 232.222,157.736 242.168,157.155 C244.337,157.029 246.513,157.094 248.686,157.063 z" clip-path="url(#Clip_3)" filter="url(#Shadow_4)" fill="rgba(0,0,0,1)"/>
        <path d="M262.852,159.534 L444.731,227.807 C457.446,232.58 455.915,242.563 441.31,250.106 L286.615,330.001 C272.01,337.543 249.864,339.789 237.148,335.016 L55.269,266.743 C42.554,261.97 44.085,251.986 58.69,244.443 L213.385,164.549 C227.99,157.006 250.136,154.761 262.852,159.534 z" fill="#FFFFFF"/>
        <path d="M248.686,157.063 C253.542,157.12 258.258,158.034 262.852,159.534 L444.731,227.807 C457.446,232.58 455.915,242.563 441.31,250.106 L286.615,330 C272.01,337.543 249.864,339.789 237.148,335.016 L55.269,266.742 C42.554,261.97 44.085,251.986 58.69,244.443 L213.385,164.549 C222.32,160.105 232.222,157.736 242.168,157.155 C244.337,157.029 246.513,157.094 248.686,157.063 z M246.938,176.995 C238.529,177.064 230.173,178.697 222.563,182.319 L81.439,255.204 L244.177,316.291 C251.286,318.96 267.613,317.304 277.437,312.23 L418.56,239.346 L255.823,178.258 C252.978,177.174 249.928,177.153 246.938,176.995 z" fill="#4A50CC"/>
      </g>
      <g>
        <path d="M248.686,92.878 C253.542,92.935 258.258,93.849 262.852,95.349 L444.731,163.622 C457.446,168.395 455.915,178.378 441.31,185.921 L286.615,265.815 C272.01,273.358 249.864,275.603 237.148,270.83 L55.269,202.557 C42.554,197.785 44.085,187.801 58.69,180.258 L213.385,100.364 C222.32,95.92 232.222,93.551 242.168,92.97 C244.337,92.843 246.513,92.908 248.686,92.878 z" clip-path="url(#Clip_5)" filter="url(#Shadow_6)" fill="rgba(0,0,0,1)"/>
        <path d="M262.852,95.349 L444.731,163.622 C457.446,168.395 455.915,178.378 441.31,185.921 L286.615,265.815 C272.01,273.358 249.864,275.603 237.148,270.83 L55.269,202.557 C42.554,197.785 44.085,187.801 58.69,180.258 L213.385,100.364 C227.99,92.821 250.136,90.576 262.852,95.349 z" fill="#FFFFFF"/>
        <path d="M248.686,92.878 C253.542,92.935 258.258,93.849 262.852,95.349 L444.731,163.622 C457.446,168.395 455.915,178.378 441.31,185.921 L286.615,265.815 C272.01,273.358 249.864,275.603 237.148,270.83 L55.269,202.557 C42.554,197.785 44.085,187.801 58.69,180.258 L213.385,100.364 C222.32,95.92 232.222,93.551 242.168,92.97 C244.337,92.843 246.513,92.908 248.686,92.878 z M246.938,112.81 C238.529,112.879 230.173,114.512 222.563,118.134 L81.44,191.019 L244.177,252.106 C251.286,254.775 267.613,253.119 277.437,248.045 L418.56,175.16 L255.823,114.073 C252.978,112.989 249.928,112.968 246.938,112.81 z" fill="#4A50CC"/>
      </g>
      <g>
        <path d="M248.686,28.692 C253.542,28.749 258.258,29.664 262.852,31.163 L444.731,99.436 C457.446,104.209 455.915,114.193 441.31,121.736 L286.615,201.63 C272.01,209.173 249.864,211.418 237.148,206.645 L55.269,138.372 C42.554,133.599 44.085,123.616 58.69,116.073 L213.385,36.179 C222.32,31.735 232.222,29.366 242.168,28.785 C244.337,28.658 246.513,28.723 248.686,28.692 z" clip-path="url(#Clip_7)" filter="url(#Shadow_8)" fill="rgba(0,0,0,1)"/>
        <path d="M262.852,31.163 L444.731,99.436 C457.446,104.209 455.915,114.193 441.31,121.736 L286.615,201.63 C272.01,209.173 249.864,211.418 237.148,206.645 L55.269,138.372 C42.554,133.599 44.085,123.616 58.69,116.073 L213.385,36.179 C227.99,28.636 250.136,26.391 262.852,31.163 z" fill="#FFFFFF"/>
        <path d="M248.686,28.692 C253.542,28.749 258.258,29.664 262.852,31.163 L444.731,99.436 C457.446,104.209 455.915,114.193 441.31,121.736 L286.615,201.63 C272.01,209.173 249.864,211.418 237.148,206.645 L55.269,138.372 C42.554,133.599 44.085,123.616 58.69,116.073 L213.385,36.179 C222.32,31.735 232.222,29.366 242.168,28.785 C244.337,28.658 246.513,28.723 248.686,28.692 z M246.938,48.625 C238.529,48.694 230.173,50.327 222.563,53.949 L81.439,126.833 L244.177,187.921 C251.286,190.589 267.613,188.934 277.437,183.86 L418.56,110.975 L255.823,49.888 C252.978,48.804 249.928,48.783 246.938,48.625 z" fill="#4A50CC"/>
      </g>
    </g>
    <g>
      <g>
        <path d="M250.5,304.276 C280.539,304.276 304.812,330.164 304.812,361.8 L304.812,380.207 L306.441,380.207 C318.266,380.207 327.698,390.267 327.698,402.48 L327.698,467.563 C327.698,479.774 318.266,489.833 306.441,489.833 L194.558,489.833 C182.734,489.833 173.302,479.774 173.302,467.563 L173.302,402.48 C173.302,390.267 182.734,380.207 194.558,380.207 L196.188,380.207 L196.188,361.8 C196.188,330.164 220.461,304.276 250.5,304.276 z M250.5,343.396 C241.284,343.396 233.614,351.574 233.614,361.8 L233.614,380.207 L267.386,380.207 L267.386,361.8 C267.386,351.574 259.716,343.396 250.5,343.396 z" clip-path="url(#Clip_9)" filter="url(#Shadow_10)" fill="rgba(0,0,0,0.75)"/>
        <path d="M306.442,386.207 L298.812,386.207 L298.812,361.8 C298.812,333.395 277.137,310.276 250.5,310.276 C223.863,310.276 202.188,333.395 202.188,361.8 L202.188,386.207 L194.558,386.207 C186.137,386.207 179.302,393.497 179.302,402.48 L179.302,467.563 C179.302,476.543 186.137,483.833 194.558,483.833 L306.442,483.833 C314.863,483.833 321.698,476.543 321.698,467.563 L321.698,402.48 C321.698,393.497 314.863,386.207 306.442,386.207 z M273.386,386.207 L227.614,386.207 L227.614,361.8 C227.614,348.343 237.881,337.396 250.5,337.396 C263.119,337.396 273.386,348.343 273.386,361.8 L273.386,386.207 z" fill="#FFFFFF"/>
        <path d="M306.442,386.207 L298.812,386.207 L298.812,361.8 C298.812,333.395 277.137,310.276 250.5,310.276 C223.863,310.276 202.188,333.395 202.188,361.8 L202.188,386.207 L194.558,386.207 C186.137,386.207 179.302,393.497 179.302,402.48 L179.302,467.563 C179.302,476.543 186.137,483.833 194.558,483.833 L306.442,483.833 C314.863,483.833 321.698,476.543 321.698,467.563 L321.698,402.48 C321.698,393.497 314.863,386.207 306.442,386.207 z M273.386,386.207 L227.614,386.207 L227.614,361.8 C227.614,348.343 237.881,337.396 250.5,337.396 C263.119,337.396 273.386,348.343 273.386,361.8 L273.386,386.207 z" fill-opacity="0" stroke="#C31C1C" stroke-width="12" stroke-linecap="round"/>
      </g>
      <g>
        <path d="M250.5,430.564 C253.814,430.564 256.5,433.251 256.5,436.564 L256.5,462.276 C256.5,465.59 253.814,468.276 250.5,468.276 C247.186,468.276 244.5,465.59 244.5,462.276 L244.5,436.564 C244.5,433.251 247.186,430.564 250.5,430.564 z" clip-path="url(#Clip_11)" filter="url(#Shadow_12)" fill="rgba(0,0,0,0.75)"/>
        <path d="M250.5,436.564 L250.5,462.276" fill="#FFFFFF"/>
        <path d="M250.5,436.564 L250.5,462.276" fill-opacity="0" stroke="#C31C1C" stroke-width="12" stroke-linecap="round"/>
      </g>
    </g>
  </g>
</svg>
