<?xml version="1.0" encoding="UTF-8"?>
<!DOCTYPE svg PUBLIC "-//W3C//DTD SVG 1.1//EN" "http://www.w3.org/Graphics/SVG/1.1/DTD/svg11.dtd">
<svg version="1.1" xmlns="http://www.w3.org/2000/svg" xmlns:xlink="http://www.w3.org/1999/xlink" x="0" y="0" width="500" height="500" viewBox="0, 0, 500, 500">
  <defs>
    <clipPath id="Clip_1">
      <path d="M9.011,212.212 L203.969,212.212 L203.969,308.155 L9.011,308.155 z M85.078,217.298 C83.769,217.298 82.445,217.106 81.149,217.298 C76.109,218.045 72.24,221.528 70.703,226.287 C65.42,243.244 60.13,260.198 54.848,277.155 L27.011,277.155 C19.831,277.155 14.011,282.975 14.011,290.155 C14.011,297.335 19.831,303.155 27.011,303.155 L64.413,303.155 C70.102,303.155 75.131,299.455 76.824,294.023 C78.921,287.297 81.017,280.57 83.114,273.843 C84.236,277.445 85.359,281.047 86.482,284.648 C87.724,288.633 87.724,288.633 88.6,291.445 C89.258,293.555 89.258,293.555 89.404,294.023 C91.097,299.455 96.125,303.155 101.815,303.155 L185.969,303.155 C193.149,303.155 198.969,297.335 198.969,290.155 C198.969,282.975 193.149,277.155 185.969,277.155 L111.38,277.155 L111.304,276.912 C108.382,267.537 108.382,267.537 104.875,256.287 C101.369,245.037 101.369,245.037 98.447,235.662 C97.205,231.677 97.205,231.677 96.328,228.865 C95.671,226.755 95.671,226.755 95.525,226.287 C93.763,221.345 90.281,218.373 85.078,217.298 z"/>
    </clipPath>
    <filter id="Shadow_2">
      <feGaussianBlur in="SourceAlpha" stdDeviation="2"/>
      <feOffset dx="0" dy="0" result="offsetblur"/>
      <feFlood flood-color="#FF0000"/>
      <feComposite in2="offsetblur" operator="in"/>
    </filter>
    <clipPath id="Clip_3">
      <path d="M158.969,115.732 L462.461,115.732 L462.461,318.155 L158.969,318.155 z M435.461,125.732 L345.644,125.732 C339.57,125.733 333.907,128.795 330.581,133.877 C330.496,134.007 330.335,134.254 330.099,134.616 C329.711,135.212 329.252,135.919 328.725,136.733 C327.223,139.051 325.467,141.775 323.473,144.886 C317.785,153.759 311.317,163.967 304.186,175.369 C284.24,207.392 264.578,239.594 245.52,272.155 L185.969,272.155 C176.028,272.155 167.969,280.214 167.969,290.155 C167.969,300.096 176.028,308.155 185.969,308.155 L255.827,308.155 C262.225,308.155 268.142,304.759 271.369,299.235 C293.103,262.032 314.529,226.723 334.708,194.459 C341.767,183.173 348.163,173.077 353.78,164.314 C355.284,161.971 354.731,162.831 355.438,161.732 L435.461,161.732 C445.402,161.733 453.461,153.674 453.461,143.732 C453.461,133.791 445.402,125.733 435.461,125.732 z"/>
    </clipPath>
    <filter id="Shadow_4">
      <feGaussianBlur in="SourceAlpha" stdDeviation="2.5"/>
      <feOffset dx="3" dy="4" result="offsetblur"/>
      <feFlood flood-color="#000000"/>
      <feComposite in2="offsetblur" operator="in"/>
    </filter>
    <clipPath id="Clip_5">
      <path d="M163.969,121.732 L457.461,121.732 L457.461,312.155 L163.969,312.155 z M435.461,125.732 L345.644,125.732 C339.57,125.733 333.907,128.795 330.581,133.877 C330.496,134.007 330.335,134.254 330.099,134.616 C329.711,135.212 329.252,135.919 328.725,136.733 C327.223,139.051 325.467,141.775 323.473,144.886 C317.785,153.759 311.317,163.967 304.186,175.369 C284.24,207.392 264.578,239.594 245.52,272.155 L185.969,272.155 C176.028,272.155 167.969,280.214 167.969,290.155 C167.969,300.096 176.028,308.155 185.969,308.155 L255.827,308.155 C262.225,308.155 268.142,304.759 271.369,299.235 C293.103,262.032 314.529,226.723 334.708,194.459 C341.767,183.173 348.163,173.077 353.78,164.314 C355.284,161.971 354.731,162.831 355.438,161.732 L435.461,161.732 C445.402,161.733 453.461,153.674 453.461,143.732 C453.461,133.791 445.402,125.733 435.461,125.732 z"/>
    </clipPath>
    <filter id="Shadow_6">
      <feGaussianBlur in="SourceAlpha" stdDeviation="1.5"/>
      <feOffset dx="0" dy="0" result="offsetblur"/>
      <feFlood flood-color="#FF0000"/>
      <feComposite in2="offsetblur" operator="in"/>
    </filter>
    <clipPath id="Clip_7">
      <path d="M312.27,72.445 C346.486,74.24 378.161,88.614 402.572,112.414 C456.073,165.916 456.073,252.66 402.572,306.161 C349.07,359.663 262.326,359.663 208.824,306.161 C155.323,252.66 155.323,165.916 208.824,112.414 C232.75,88.474 265.282,74.062 299.126,72.445 C303.502,72.235 307.889,72.445 312.27,72.445 z"/>
    </clipPath>
    <filter id="Shadow_8">
      <feGaussianBlur in="SourceAlpha" stdDeviation="7.5"/>
      <feOffset dx="0" dy="0" result="offsetblur"/>
      <feFlood flood-color="#71B8FF"/>
      <feComposite in2="offsetblur" operator="in"/>
    </filter>
  </defs>
  <g id="Background"/>
  <g id="Layer_1">
    <g>
      <path d="M27.011,290.155 C27.011,290.155 64.413,290.155 64.413,290.155 C83.114,230.155 83.114,230.155 83.114,230.155 C83.114,230.155 101.815,290.155 101.815,290.155 C173.049,290.155 185.969,290.155 185.969,290.155" fill-opacity="0" stroke="#E46161" stroke-width="26" stroke-linecap="round" stroke-linejoin="round"/>
      <g>
        <path d="M85.078,217.298 C90.281,218.373 93.763,221.345 95.525,226.287 C95.671,226.755 95.671,226.755 96.328,228.865 C97.205,231.677 97.205,231.677 98.447,235.662 C101.369,245.037 101.369,245.037 104.875,256.287 C108.382,267.537 108.382,267.537 111.304,276.912 L111.38,277.155 L185.969,277.155 C193.149,277.155 198.969,282.975 198.969,290.155 C198.969,297.335 193.149,303.155 185.969,303.155 L101.815,303.155 C96.125,303.155 91.097,299.455 89.404,294.023 C89.258,293.555 89.258,293.555 88.6,291.445 C87.724,288.633 87.724,288.633 86.482,284.648 C85.359,281.047 84.236,277.445 83.114,273.843 C81.017,280.57 78.921,287.297 76.824,294.023 C75.131,299.455 70.102,303.155 64.413,303.155 L27.011,303.155 C19.831,303.155 14.011,297.335 14.011,290.155 C14.011,282.975 19.831,277.155 27.011,277.155 L54.848,277.155 C60.13,260.198 65.42,243.244 70.703,226.287 C72.24,221.528 76.109,218.045 81.149,217.298 C82.445,217.106 83.769,217.298 85.078,217.298 z" fill="rgba(0,0,0,1)" clip-path="url(#Clip_1)" filter="url(#Shadow_2)"/>
        <path d="M84.876,218.277 C89.753,219.285 92.944,222.025 94.583,226.623 C94.608,226.704 94.608,226.704 94.64,226.809 L94.64,226.809 C94.787,227.28 94.787,227.28 95.374,229.162 C95.843,230.667 95.843,230.667 96.162,231.691 L96.162,231.691 C96.614,233.14 96.614,233.14 97.492,235.959 C99.183,241.383 99.183,241.383 100.269,244.869 C100.269,244.869 100.269,244.869 100.269,244.87 C101.035,247.327 101.573,249.053 103.921,256.584 C106.268,264.115 106.268,264.115 107.572,268.299 L107.572,268.299 C108.659,271.786 108.659,271.786 110.349,277.209 L110.425,277.452 C110.555,277.87 110.942,278.155 111.38,278.155 L185.969,278.155 C192.597,278.155 197.969,283.528 197.969,290.155 C197.969,296.782 192.597,302.155 185.969,302.155 L101.815,302.155 C96.563,302.155 91.921,298.74 90.358,293.726 C90.321,293.606 90.321,293.606 90.288,293.501 L90.288,293.501 C90.142,293.03 90.142,293.03 89.555,291.148 C89.086,289.643 89.086,289.643 88.767,288.62 C88.767,288.62 88.767,288.62 88.767,288.62 C88.315,287.17 88.315,287.17 87.436,284.351 C86.394,281.008 85.304,277.51 84.069,273.545 C83.777,272.609 82.451,272.609 82.159,273.545 C81.171,276.714 80.381,279.25 78.603,284.954 L78.603,284.954 C77.236,289.34 76.629,291.289 75.869,293.726 C74.306,298.74 69.665,302.155 64.413,302.155 L27.011,302.155 C20.383,302.155 15.011,296.782 15.011,290.155 C15.011,283.528 20.383,278.155 27.011,278.155 L54.848,278.155 C55.286,278.155 55.672,277.87 55.803,277.452 C57.946,270.571 59.662,265.066 63.524,252.681 C63.524,252.68 63.524,252.68 63.524,252.68 C67.591,239.633 69.399,233.833 71.657,226.584 C73.101,222.114 76.715,218.966 81.296,218.287 C81.929,218.193 82.468,218.193 83.717,218.254 C84.39,218.287 84.693,218.298 85.078,218.298 L84.876,218.277 z M85.281,216.318 L85.078,216.298 C84.736,216.298 84.455,216.287 83.814,216.256 C82.434,216.189 81.809,216.189 81.002,216.309 C75.658,217.101 71.429,220.786 69.751,225.979 C67.49,233.238 65.682,239.038 61.614,252.085 C61.614,252.085 61.614,252.085 61.614,252.085 C57.753,264.471 56.037,269.976 53.893,276.858 L54.848,276.155 L27.011,276.155 C19.279,276.155 13.011,282.423 13.011,290.155 C13.011,297.887 19.279,304.155 27.011,304.155 L64.413,304.155 C70.54,304.155 75.955,300.171 77.779,294.321 C78.538,291.884 79.146,289.935 80.513,285.549 L80.513,285.549 C82.291,279.845 83.081,277.31 84.069,274.141 L82.159,274.141 C83.395,278.105 84.485,281.603 85.527,284.946 C86.406,287.765 86.406,287.765 86.857,289.215 C86.857,289.215 86.857,289.215 86.857,289.215 C87.176,290.238 87.176,290.238 87.645,291.743 C88.232,293.626 88.232,293.626 88.379,294.096 L88.379,294.096 C88.412,294.201 88.412,294.201 88.449,294.321 C90.272,300.171 95.688,304.155 101.815,304.155 L185.969,304.155 C193.701,304.155 199.969,297.887 199.969,290.155 C199.969,282.423 193.701,276.155 185.969,276.155 L111.38,276.155 L111.38,277.155 L112.334,276.858 L112.259,276.614 C110.568,271.191 110.568,271.191 109.481,267.704 L109.481,267.704 C108.177,263.52 108.177,263.52 105.83,255.989 C103.483,248.458 102.945,246.732 102.179,244.274 C102.179,244.274 102.179,244.274 102.179,244.274 C101.092,240.788 101.092,240.788 99.402,235.364 C98.523,232.545 98.523,232.545 98.071,231.096 L98.071,231.096 C97.752,230.072 97.752,230.072 97.283,228.567 C96.696,226.685 96.696,226.685 96.55,226.214 L96.55,226.214 C96.517,226.109 96.517,226.109 96.48,225.989 C94.591,220.691 90.837,217.467 85.281,216.318 z" fill="rgba(0,0,0,1)" clip-path="url(#Clip_1)" filter="url(#Shadow_2)"/>
      </g>
    </g>
    <g>
      <path d="M435.461,125.732 C445.402,125.733 453.461,133.791 453.461,143.732 C453.461,153.674 445.402,161.733 435.461,161.732 L355.438,161.732 C354.731,162.831 355.284,161.971 353.78,164.314 C348.163,173.077 341.767,183.173 334.708,194.459 C314.529,226.723 293.103,262.032 271.369,299.235 C268.142,304.759 262.225,308.155 255.827,308.155 L185.969,308.155 C176.028,308.155 167.969,300.096 167.969,290.155 C167.969,280.214 176.028,272.155 185.969,272.155 L245.52,272.155 C264.578,239.594 284.24,207.392 304.186,175.369 C311.317,163.967 317.785,153.759 323.473,144.886 C325.467,141.775 327.223,139.051 328.725,136.733 C329.252,135.919 329.711,135.212 330.099,134.616 C330.335,134.254 330.496,134.007 330.581,133.877 C333.907,128.795 339.57,125.733 345.644,125.732 L435.461,125.732 z" clip-path="url(#Clip_3)" filter="url(#Shadow_4)" fill="rgba(0,0,0,0.75)"/>
      <path d="M185.969,290.155 C199.792,290.155 255.827,290.155 255.827,290.155 C305.725,204.742 345.644,143.733 345.644,143.733 C385.562,143.733 435.461,143.733 435.461,143.733" fill-opacity="0" stroke="#E46161" stroke-width="36" stroke-linecap="round" stroke-linejoin="round"/>
      <g>
        <path d="M435.461,125.732 C445.402,125.733 453.461,133.791 453.461,143.732 C453.461,153.674 445.402,161.733 435.461,161.732 L355.438,161.732 C354.731,162.831 355.284,161.971 353.78,164.314 C348.163,173.077 341.767,183.173 334.708,194.459 C314.529,226.723 293.103,262.032 271.369,299.235 C268.142,304.759 262.225,308.155 255.827,308.155 L185.969,308.155 C176.028,308.155 167.969,300.096 167.969,290.155 C167.969,280.214 176.028,272.155 185.969,272.155 L245.52,272.155 C264.578,239.594 284.24,207.392 304.186,175.369 C311.317,163.967 317.785,153.759 323.473,144.886 C325.467,141.775 327.223,139.051 328.725,136.733 C329.252,135.919 329.711,135.212 330.099,134.616 C330.335,134.254 330.496,134.007 330.581,133.877 C333.907,128.795 339.57,125.733 345.644,125.732 L435.461,125.732 z" fill="rgba(0,0,0,1)" clip-path="url(#Clip_5)" filter="url(#Shadow_6)"/>
        <path d="M435.461,126.482 C444.988,126.483 452.711,134.206 452.711,143.732 C452.711,153.259 444.988,160.983 435.461,160.982 L355.438,160.982 C355.183,160.982 354.946,161.112 354.808,161.326 C354.392,161.971 354.401,161.958 354.277,162.152 C354.02,162.552 353.718,163.023 353.149,163.909 C347.27,173.08 340.857,183.214 334.072,194.061 C312.957,227.822 291.612,263.097 270.721,298.856 C267.629,304.151 261.958,307.405 255.827,307.405 L185.969,307.405 C176.442,307.405 168.719,299.682 168.719,290.155 C168.719,280.628 176.442,272.905 185.969,272.905 L245.52,272.905 C245.786,272.905 246.032,272.764 246.167,272.534 C263.792,242.421 282.743,211.214 304.823,175.766 C311.675,164.81 318.157,154.569 324.104,145.29 C326.021,142.3 327.785,139.564 329.354,137.141 C329.859,136.362 330.32,135.652 330.728,135.026 C330.926,134.721 331.044,134.541 331.209,134.287 C334.396,129.418 339.824,126.483 345.644,126.482 L435.461,126.482 z M435.461,124.982 L345.644,124.982 C339.317,124.983 333.418,128.173 329.954,133.467 C329.788,133.721 329.67,133.902 329.471,134.207 C329.063,134.834 328.601,135.545 328.095,136.325 C326.524,138.75 324.76,141.489 322.842,144.481 C316.891,153.764 310.406,164.01 303.55,174.971 C281.463,210.431 262.505,241.65 244.872,271.776 L245.52,271.405 L185.969,271.405 C175.614,271.405 167.219,279.8 167.219,290.155 C167.219,300.51 175.614,308.905 185.969,308.905 L255.827,308.905 C262.491,308.905 268.655,305.368 272.017,299.613 C292.899,263.867 314.237,228.605 335.344,194.856 C342.125,184.014 348.536,173.885 354.412,164.719 C354.98,163.833 355.282,163.362 355.539,162.962 C355.663,162.769 355.654,162.782 356.069,162.139 L355.438,162.482 L435.461,162.482 C445.816,162.483 454.211,154.088 454.211,143.732 C454.211,133.377 445.816,124.983 435.461,124.982 z" fill="rgba(0,0,0,1)" clip-path="url(#Clip_5)" filter="url(#Shadow_6)"/>
      </g>
    </g>
    <path d="M171.435,344.192 L73.582,441.21" fill-opacity="0" stroke="#4A50CC" stroke-width="64" stroke-linecap="round"/>
    <g>
      <path d="M152.698,56.352 L458.698,56.352 L458.698,362.288 L152.698,362.288 z M312.27,72.445 C307.889,72.445 303.502,72.235 299.126,72.445 C265.282,74.062 232.75,88.474 208.824,112.414 C155.323,165.916 155.323,252.66 208.824,306.161 C262.326,359.663 349.07,359.663 402.572,306.161 C456.073,252.66 456.073,165.916 402.572,112.414 C378.161,88.614 346.486,74.24 312.27,72.445 z" fill="rgba(0,0,0,1)" clip-path="url(#Clip_7)" filter="url(#Shadow_8)"/>
      <path d="M152.698,60.102 L458.698,60.102 L454.948,56.352 L454.948,362.288 L458.698,358.538 L152.698,358.538 L156.448,362.288 L156.448,56.352 L152.698,60.102 z M152.698,52.602 C150.627,52.602 148.948,54.28 148.948,56.352 L148.948,362.288 C148.948,364.359 150.627,366.038 152.698,366.038 L458.698,366.038 C460.769,366.038 462.448,364.359 462.448,362.288 L462.448,56.352 C462.448,54.28 460.769,52.602 458.698,52.602 L152.698,52.602 z M312.27,68.695 C311.079,68.695 310.119,68.683 307.947,68.648 C303.485,68.578 301.484,68.578 298.947,68.699 C264.182,70.36 230.765,85.155 206.172,109.763 C151.206,164.729 151.206,253.847 206.173,308.813 C261.139,363.779 350.257,363.779 405.223,308.813 C460.19,253.847 460.19,164.729 405.223,109.763 C379.886,85.058 347.267,70.526 312.466,68.7 L312.27,68.695 z M312.27,76.195 L312.074,76.189 C345.038,77.919 375.941,91.687 399.954,115.099 C451.957,167.103 451.957,251.472 399.92,303.51 C347.883,355.547 263.513,355.547 211.476,303.51 C159.439,251.472 159.439,167.103 211.476,115.066 C234.751,91.776 266.405,77.763 299.305,76.19 C301.63,76.079 303.525,76.079 307.828,76.148 C310.039,76.183 311.026,76.195 312.27,76.195 z" fill="rgba(0,0,0,1)" clip-path="url(#Clip_7)" filter="url(#Shadow_8)"/>
    </g>
    <path d="M193.622,321.364 C131.724,259.466 131.724,159.11 193.622,97.211 C255.52,35.313 355.876,35.313 417.774,97.211 C479.673,159.11 479.673,259.466 417.774,321.364 C355.876,383.262 255.52,383.262 193.622,321.364 z" fill-opacity="0" stroke="#4A50CC" stroke-width="44"/>
  </g>
</svg>
