<?xml version="1.0" encoding="UTF-8"?>
<!DOCTYPE svg PUBLIC "-//W3C//DTD SVG 1.1//EN" "http://www.w3.org/Graphics/SVG/1.1/DTD/svg11.dtd">
<svg version="1.1" xmlns="http://www.w3.org/2000/svg" xmlns:xlink="http://www.w3.org/1999/xlink" x="0" y="0" width="500" height="500" viewBox="0, 0, 500, 500">
  <g id="Background">
    <rect x="0" y="0" width="500" height="500" fill="#FFFFFF" fill-opacity="0"/>
  </g>
  <g id="Layer_1">
    <g>
      <path d="M941.733,408.461 z" fill="#E46161"/>
      <path d="M941.733,408.461 z" fill-opacity="0" stroke="#4A50CC" stroke-width="2"/>
    </g>
    <g>
      <path d="M250.5,294.441 L192.265,49.853" fill-opacity="0" stroke="#C2C4F1" stroke-width="20"/>
      <path d="M75.794,469.147 L250.5,294.441" fill-opacity="0" stroke="#C2C4F1" stroke-width="20"/>
      <path d="M250.5,294.441 L425.206,352.676" fill-opacity="0" stroke="#C2C4F1" stroke-width="20"/>
    </g>
    <g>
      <path d="M189.265,65.853 C175.458,65.853 164.265,54.66 164.265,40.853 C164.265,27.046 175.458,15.853 189.265,15.853 C203.072,15.853 214.265,27.046 214.265,40.853 C214.265,54.66 203.072,65.853 189.265,65.853 z" fill="#4A50CC"/>
      <path d="M189.265,65.853 C175.458,65.853 164.265,54.66 164.265,40.853 C164.265,27.046 175.458,15.853 189.265,15.853 C203.072,15.853 214.265,27.046 214.265,40.853 C214.265,54.66 203.072,65.853 189.265,65.853 z" fill-opacity="0" stroke="#4A50CC" stroke-width="18"/>
    </g>
    <g>
      <path d="M75.794,487.647 C60.606,487.647 48.294,475.335 48.294,460.147 C48.294,444.959 60.606,432.647 75.794,432.647 C90.982,432.647 103.294,444.959 103.294,460.147 C103.294,475.335 90.982,487.647 75.794,487.647 z" fill="#4A50CC"/>
      <path d="M75.794,487.647 C60.606,487.647 48.294,475.335 48.294,460.147 C48.294,444.959 60.606,432.647 75.794,432.647 C90.982,432.647 103.294,444.959 103.294,460.147 C103.294,475.335 90.982,487.647 75.794,487.647 z" fill-opacity="0" stroke="#4A50CC" stroke-width="18"/>
    </g>
    <g>
      <path d="M425.206,379.176 C410.018,379.176 397.706,366.864 397.706,351.676 C397.706,336.489 410.018,324.176 425.206,324.176 C440.394,324.176 452.706,336.489 452.706,351.676 C452.706,366.864 440.394,379.176 425.206,379.176 z" fill="#4A50CC"/>
      <path d="M425.206,379.176 C410.018,379.176 397.706,366.864 397.706,351.676 C397.706,336.489 410.018,324.176 425.206,324.176 C440.394,324.176 452.706,336.489 452.706,351.676 C452.706,366.864 440.394,379.176 425.206,379.176 z" fill-opacity="0" stroke="#4A50CC" stroke-width="18"/>
    </g>
    <path d="M250,359.941 C208.579,359.941 175,326.363 175,284.941 C175,243.52 208.579,209.941 250,209.941 C291.421,209.941 325,243.52 325,284.941 C325,326.363 291.421,359.941 250,359.941 z" fill="#FFFFFF"/>
    <path d="M250.5,360.441 C209.079,360.441 175.5,326.863 175.5,285.441 C175.5,244.02 209.079,210.441 250.5,210.441 C291.921,210.441 325.5,244.02 325.5,285.441 C325.5,326.863 291.921,360.441 250.5,360.441 z" fill-opacity="0" stroke="#E46161" stroke-width="24"/>
  </g>
</svg>
