<?xml version="1.0" encoding="UTF-8"?>
<!DOCTYPE svg PUBLIC "-//W3C//DTD SVG 1.1//EN" "http://www.w3.org/Graphics/SVG/1.1/DTD/svg11.dtd">
<svg version="1.1" xmlns="http://www.w3.org/2000/svg" xmlns:xlink="http://www.w3.org/1999/xlink" x="0" y="0" width="200" height="200" viewBox="0, 0, 200, 200">
  <g id="Background">
    <rect x="0" y="0" width="200" height="200" fill="#FFFFFF" fill-opacity="0"/>
  </g>
  <defs>
    <clipPath id="Clip_1">
      <path d="M6.247,1.788 L147.908,1.788 L147.908,145.157 L6.247,145.157 z M92.373,4.788 L79.881,4.789 C76.337,4.789 73.274,7.181 72.423,10.615 L67.988,28.273 C65.736,29.044 63.463,29.995 61.221,31.126 L45.575,21.726 C42.542,19.914 38.688,20.395 36.185,22.887 L27.346,31.727 C24.843,34.219 24.373,38.083 26.184,41.116 L35.564,56.763 C34.463,58.985 33.512,61.268 32.751,63.54 L15.073,67.965 C11.639,68.816 9.247,71.889 9.247,75.422 L9.247,87.915 C9.247,91.459 11.639,94.522 15.073,95.373 L32.731,99.808 C33.502,102.07 34.463,104.353 35.584,106.575 L26.184,122.221 C24.373,125.255 24.843,129.109 27.346,131.611 L36.185,140.45 C38.688,142.953 42.542,143.424 39.809,136.827 L30.969,127.997 C30.139,127.157 29.978,125.865 30.589,124.864 L39.969,109.218 C40.87,107.716 40.94,105.874 40.159,104.293 C39.148,102.271 38.287,100.208 37.586,98.156 C37.016,96.494 35.664,95.243 33.993,94.833 L16.314,90.408 C15.173,90.118 14.372,89.097 14.372,87.915 L14.372,75.422 C14.372,74.241 15.173,73.22 16.314,72.93 L33.993,68.505 C35.664,68.095 37.016,66.843 37.586,65.182 C38.277,63.13 39.148,61.067 40.159,59.045 C40.94,57.464 40.87,55.622 39.969,54.12 L30.579,38.474 C29.978,37.473 30.139,36.181 30.959,35.34 L39.799,26.511 C40.63,25.68 41.921,25.52 42.932,26.131 L58.578,35.511 C60.08,36.412 61.922,36.482 63.503,35.701 C65.536,34.69 67.598,33.819 69.64,33.128 C71.302,32.548 72.553,31.206 72.963,29.534 L77.388,11.856 C77.678,10.715 78.699,9.914 79.881,9.914 L92.374,9.914 C93.555,9.914 94.576,10.715 94.856,11.856 L99.281,29.534 C99.701,31.206 100.943,32.558 102.614,33.128 C104.647,33.819 106.709,34.69 108.751,35.701 C110.332,36.492 112.164,36.412 113.666,35.511 L129.322,26.131 C130.333,25.52 131.615,25.68 132.445,26.511 L141.285,35.34 L144.908,31.727 L136.069,22.887 C133.567,20.385 129.713,19.914 126.679,21.726 L111.033,31.106 C108.791,29.995 106.508,29.044 104.256,28.293 L99.831,10.615 C98.981,7.181 95.907,4.789 92.373,4.788 z"/>
    </clipPath>
    <filter id="Shadow_2">
      <feGaussianBlur in="SourceAlpha" stdDeviation="1"/>
      <feOffset dx="0" dy="0" result="offsetblur"/>
      <feFlood flood-color="#0080FF"/>
      <feComposite in2="offsetblur" operator="in"/>
    </filter>
    <clipPath id="Clip_3">
      <path d="M47.25,43.755 L83.707,43.755 L83.707,116.682 L47.25,116.682 z M78.046,46.755 L77.528,46.832 C61.471,50.777 50.25,65.102 50.25,81.669 C50.25,94.983 57.557,107.146 69.34,113.382 C69.72,113.592 70.14,113.682 70.541,113.682 C71.462,113.682 72.343,113.192 72.803,112.321 C73.464,111.07 72.993,109.518 71.742,108.857 C61.652,103.502 55.375,93.081 55.375,81.669 C55.375,67.474 64.985,55.191 78.759,51.808 C80.131,51.467 80.972,50.076 80.631,48.704 C80.381,47.673 79.54,46.943 78.549,46.782 L78.046,46.755 z"/>
    </clipPath>
    <filter id="Shadow_4">
      <feGaussianBlur in="SourceAlpha" stdDeviation="1"/>
      <feOffset dx="0" dy="0" result="offsetblur"/>
      <feFlood flood-color="#0080FF"/>
      <feComposite in2="offsetblur" operator="in"/>
    </filter>
    <clipPath id="Clip_5">
      <path d="M62.626,58.167 L109.629,58.167 L109.629,105.17 L62.626,105.17 z M86.127,76.544 C83.294,76.544 81.002,78.836 81.002,81.669 C81.002,84.502 83.294,86.794 86.127,86.794 C88.96,86.794 91.253,84.502 91.253,81.669 C91.253,78.836 88.96,76.544 86.127,76.544 z M86.127,66.293 C94.606,66.293 101.503,73.19 101.503,81.669 C101.503,90.148 94.606,97.045 86.127,97.045 C77.648,97.045 70.751,90.148 70.751,81.669 C70.751,73.19 77.648,66.293 86.127,66.293 z M86.127,61.167 C74.825,61.168 65.626,70.367 65.626,81.669 C65.626,92.971 74.825,102.17 86.127,102.17 C97.429,102.17 106.629,92.971 106.629,81.669 C106.629,70.367 97.429,61.168 86.127,61.167 z"/>
    </clipPath>
    <filter id="Shadow_6">
      <feGaussianBlur in="SourceAlpha" stdDeviation="1"/>
      <feOffset dx="0" dy="0" result="offsetblur"/>
      <feFlood flood-color="#0080FF"/>
      <feComposite in2="offsetblur" operator="in"/>
    </filter>
    <clipPath id="Clip_7">
      <path d="M85.036,43.097 L102.038,43.097 L102.038,55.559 L85.036,55.559 z M90.423,46.097 C89.138,46.452 88.326,46.887 88.059,48.314 C87.869,49.716 88.85,51.007 90.251,51.197 C92.093,51.437 93.915,51.858 95.687,52.428 C95.947,52.508 96.208,52.559 96.468,52.559 C97.549,52.559 98.56,51.858 98.91,50.787 C99.351,49.435 98.61,47.994 97.269,47.553 C95.207,46.883 93.084,46.392 90.932,46.112 L90.423,46.097 z"/>
    </clipPath>
    <filter id="Shadow_8">
      <feGaussianBlur in="SourceAlpha" stdDeviation="1"/>
      <feOffset dx="0" dy="0" result="offsetblur"/>
      <feFlood flood-color="#0080FF"/>
      <feComposite in2="offsetblur" operator="in"/>
    </filter>
    <clipPath id="Clip_9">
      <path d="M47.667,21.01 L202.666,21.01 L202.666,187.857 L47.667,187.857 z M181.871,30.005 C187.887,30.712 192.971,33.677 193.634,40.238 C193.851,43.67 192.891,47.313 190.707,52.314 C184.217,66.455 177.722,80.617 170.48,94.393 C163.3,108.053 154.413,127.375 136.952,129.053 C136.835,129.025 136.925,129.047 136.685,128.977 C136.255,128.842 135.674,128.621 134.976,128.324 C133.573,127.727 131.781,126.86 129.842,125.843 C126.805,124.197 123.741,122.568 120.927,120.553 L120.623,120.147 C120.441,119.905 120.229,119.688 119.992,119.5 C116.424,116.684 111.089,108.904 110.928,106.36 C110.731,103.238 110.869,101.139 111.431,99.159 C112.635,94.917 116.096,90.288 125.25,80.824 C129.282,76.655 159.084,47.069 171.442,34.543 C174.054,31.88 177.327,30.236 180.619,30.028 L181.871,30.005 z M182.115,23.01 L180.178,23.042 C175.063,23.365 170.209,25.803 166.451,29.634 C154.147,42.107 124.311,71.727 120.219,75.957 C110.281,86.231 106.32,91.529 104.697,97.247 C103.886,100.104 103.699,102.953 103.942,106.802 C104.845,113.636 110.385,120.116 115.258,124.661 L115.636,125.165 C115.823,125.414 116.042,125.637 116.287,125.828 C121.027,129.514 133.901,136.265 137.155,136.06 C157.074,134.802 167.028,120.944 197.097,55.17 C199.714,49.183 200.923,44.591 200.62,39.797 C199.459,29.964 191.817,23.662 182.115,23.01 z M100.198,125.99 L125.002,144.138 C125.108,144.681 125.062,144.396 125.134,144.994 C126.384,164.783 114.119,177.45 93.216,178.77 C72.297,179.596 60.742,165.95 57.46,146.298 L58.1,146.701 C58.703,147.076 59.281,147.43 59.841,147.766 C64.654,150.653 67.715,152.072 70.17,151.917 C73.552,151.703 76.375,149.513 77.374,146.268 C81.18,134.996 87.911,127.539 100.198,125.99 z M101.321,118.82 L100.655,118.841 C85.57,120.772 75.619,128.233 70.685,144.205 C70.514,144.576 70.252,144.899 69.805,144.916 C69.618,144.876 69.729,144.902 69.475,144.831 C69.072,144.708 68.549,144.499 67.928,144.211 C66.714,143.649 65.21,142.824 63.442,141.763 C62.917,141.448 62.371,141.114 61.799,140.758 C60.379,139.874 55.643,136.804 54.954,136.395 C52.536,134.959 49.497,136.819 49.675,139.626 C51.497,168.419 67.311,187.42 93.657,185.756 C118.28,184.201 133.624,168.355 132.12,144.552 C132.076,143.847 131.987,143.322 131.786,142.354 C131.781,142.325 131.781,142.325 131.775,142.297 C131.692,141.9 131.659,141.73 131.626,141.539 C131.474,140.64 130.977,139.836 130.242,139.298 L103.166,119.488 C102.217,118.924 102.808,119.203 101.321,118.82 z"/>
    </clipPath>
    <filter id="Shadow_10">
      <feGaussianBlur in="SourceAlpha" stdDeviation="0.5"/>
      <feOffset dx="0" dy="0" result="offsetblur"/>
      <feFlood flood-color="#E76464"/>
      <feComposite in2="offsetblur" operator="in"/>
    </filter>
  </defs>
  <g id="Layer_1">
    <g>
      <path d="M92.374,4.789 C95.907,4.789 98.981,7.181 99.831,10.615 L104.256,28.293 C106.508,29.044 108.791,29.995 111.033,31.106 L126.679,21.726 C129.713,19.914 133.567,20.385 136.069,22.887 L144.909,31.727 L141.285,35.34 L132.445,26.511 C131.615,25.68 130.333,25.52 129.322,26.131 L113.666,35.511 C112.164,36.412 110.332,36.492 108.751,35.701 C106.709,34.69 104.647,33.819 102.614,33.128 C100.943,32.558 99.701,31.206 99.281,29.534 L94.856,11.856 C94.576,10.715 93.555,9.914 92.374,9.914 L79.881,9.914 C78.699,9.914 77.678,10.715 77.388,11.856 L72.963,29.534 C72.553,31.206 71.302,32.548 69.64,33.128 C67.598,33.819 65.536,34.69 63.503,35.701 C61.922,36.482 60.08,36.412 58.578,35.511 L42.932,26.131 C41.921,25.52 40.63,25.68 39.799,26.511 L30.959,35.34 C30.139,36.181 29.978,37.473 30.579,38.474 L39.969,54.12 C40.87,55.622 40.94,57.464 40.159,59.045 C39.148,61.067 38.277,63.13 37.586,65.182 C37.016,66.843 35.664,68.095 33.993,68.505 L16.314,72.93 C15.173,73.22 14.372,74.241 14.372,75.422 L14.372,87.915 C14.372,89.097 15.173,90.118 16.314,90.408 L33.993,94.833 C35.664,95.243 37.016,96.494 37.586,98.156 C38.287,100.208 39.148,102.271 40.159,104.293 C40.94,105.874 40.87,107.716 39.969,109.218 L30.589,124.864 C29.978,125.865 30.139,127.157 30.969,127.997 L39.809,136.827 C42.542,143.424 38.688,142.953 36.185,140.45 L27.346,131.611 C24.843,129.109 24.373,125.255 26.184,122.221 L35.584,106.575 C34.463,104.353 33.502,102.07 32.731,99.808 L15.073,95.373 C11.639,94.522 9.247,91.459 9.247,87.915 L9.247,75.422 C9.247,71.889 11.639,68.816 15.073,67.965 L32.751,63.54 C33.512,61.268 34.463,58.985 35.564,56.763 L26.184,41.116 C24.373,38.083 24.843,34.219 27.346,31.727 L36.185,22.887 C38.688,20.395 42.542,19.914 45.575,21.726 L61.221,31.126 C63.463,29.995 65.736,29.044 67.988,28.273 L72.423,10.615 C73.274,7.181 76.337,4.789 79.881,4.789 L92.374,4.789 z" fill="#4A50CC"/>
      <g>
        <path d="M92.373,4.788 C95.907,4.789 98.981,7.181 99.831,10.615 L104.256,28.293 C106.508,29.044 108.791,29.995 111.033,31.106 L126.679,21.726 C129.713,19.914 133.567,20.385 136.069,22.887 L144.908,31.727 L141.285,35.34 L132.445,26.511 C131.615,25.68 130.333,25.52 129.322,26.131 L113.666,35.511 C112.164,36.412 110.332,36.492 108.751,35.701 C106.709,34.69 104.647,33.819 102.614,33.128 C100.943,32.558 99.701,31.206 99.281,29.534 L94.856,11.856 C94.576,10.715 93.555,9.914 92.374,9.914 L79.881,9.914 C78.699,9.914 77.678,10.715 77.388,11.856 L72.963,29.534 C72.553,31.206 71.302,32.548 69.64,33.128 C67.598,33.819 65.536,34.69 63.503,35.701 C61.922,36.482 60.08,36.412 58.578,35.511 L42.932,26.131 C41.921,25.52 40.63,25.68 39.799,26.511 L30.959,35.34 C30.139,36.181 29.978,37.473 30.579,38.474 L39.969,54.12 C40.87,55.622 40.94,57.464 40.159,59.045 C39.148,61.067 38.277,63.13 37.586,65.182 C37.016,66.843 35.664,68.095 33.993,68.505 L16.314,72.93 C15.173,73.22 14.372,74.241 14.372,75.422 L14.372,87.915 C14.372,89.097 15.173,90.118 16.314,90.408 L33.993,94.833 C35.664,95.243 37.016,96.494 37.586,98.156 C38.287,100.208 39.148,102.271 40.159,104.293 C40.94,105.874 40.87,107.716 39.969,109.218 L30.589,124.864 C29.978,125.865 30.139,127.157 30.969,127.997 L39.809,136.827 C42.542,143.424 38.688,142.953 36.185,140.45 L27.346,131.611 C24.843,129.109 24.373,125.255 26.184,122.221 L35.584,106.575 C34.463,104.353 33.502,102.07 32.731,99.808 L15.073,95.373 C11.639,94.522 9.247,91.459 9.247,87.915 L9.247,75.422 C9.247,71.889 11.639,68.816 15.073,67.965 L32.751,63.54 C33.512,61.268 34.463,58.985 35.564,56.763 L26.184,41.116 C24.373,38.083 24.843,34.219 27.346,31.727 L36.185,22.887 C38.688,20.395 42.542,19.914 45.575,21.726 L61.221,31.126 C63.463,29.995 65.736,29.044 67.988,28.273 L72.423,10.615 C73.274,7.181 76.337,4.789 79.881,4.789 L92.373,4.788 z" fill="rgba(0,0,0,0.75)" clip-path="url(#Clip_1)" filter="url(#Shadow_2)"/>
        <path d="M92.373,5.288 C95.682,5.289 98.552,7.528 99.346,10.735 L103.771,28.414 C103.812,28.58 103.936,28.713 104.098,28.767 C106.312,29.505 108.572,30.445 110.811,31.554 C110.964,31.63 111.144,31.622 111.29,31.535 L126.936,22.155 C129.776,20.459 133.378,20.903 135.716,23.241 L144.555,32.08 L144.555,31.373 L140.932,34.986 L141.638,34.987 L132.799,26.157 C131.804,25.163 130.27,24.974 129.064,25.703 L113.409,35.082 C112.047,35.899 110.397,35.965 108.974,35.254 C106.88,34.217 104.799,33.343 102.775,32.655 C101.271,32.141 100.146,30.926 99.766,29.412 L95.341,11.734 C95.006,10.371 93.784,9.414 92.374,9.414 L79.881,9.414 C78.473,9.414 77.251,10.368 76.903,11.733 L72.478,29.413 C72.11,30.915 70.985,32.129 69.475,32.656 C67.445,33.343 65.363,34.217 63.281,35.253 C61.852,35.959 60.19,35.895 58.836,35.082 L43.189,25.702 C41.984,24.974 40.44,25.163 39.445,26.158 L30.606,34.987 C29.621,35.995 29.433,37.536 30.15,38.731 L39.54,54.377 C40.353,55.732 40.417,57.394 39.711,58.824 C38.676,60.894 37.801,62.976 37.112,65.022 C36.597,66.522 35.378,67.65 33.873,68.02 L16.193,72.445 C14.826,72.793 13.872,74.015 13.872,75.422 L13.872,87.915 C13.872,89.323 14.826,90.546 16.191,90.893 L33.871,95.318 C35.378,95.688 36.597,96.816 37.113,98.319 C37.827,100.409 38.699,102.491 39.712,104.516 C40.417,105.944 40.353,107.606 39.54,108.96 L30.16,124.607 C29.432,125.8 29.621,127.344 30.614,128.349 L39.455,137.18 L39.347,137.018 C40.499,139.8 40.471,141.293 39.766,141.59 C39.098,141.872 37.705,141.263 36.538,140.097 L27.699,131.258 C25.361,128.92 24.917,125.317 26.614,122.478 L36.013,106.832 C36.101,106.685 36.108,106.503 36.031,106.35 C34.923,104.153 33.97,101.893 33.205,99.647 C33.15,99.486 33.018,99.364 32.853,99.323 L15.194,94.888 C11.983,94.092 9.747,91.23 9.747,87.915 L9.747,75.422 C9.747,72.115 11.987,69.245 15.193,68.45 L32.873,64.025 C33.038,63.984 33.171,63.86 33.225,63.699 C33.973,61.465 34.913,59.204 36.012,56.985 C36.088,56.832 36.081,56.652 35.993,56.506 L26.613,40.859 C24.917,38.02 25.362,34.408 27.698,32.081 L36.538,23.241 C38.88,20.909 42.484,20.462 45.318,22.156 L60.963,31.555 C61.111,31.643 61.293,31.65 61.446,31.572 C63.637,30.468 65.886,29.521 68.15,28.746 C68.31,28.691 68.432,28.559 68.473,28.395 L72.908,10.736 C73.704,7.525 76.566,5.289 79.881,5.289 L92.374,5.288 z M92.373,4.288 L79.881,4.289 C76.107,4.289 72.844,6.838 71.937,10.494 L67.503,28.151 L67.826,27.8 C65.519,28.59 63.227,29.554 60.996,30.68 L61.478,30.697 L45.832,21.298 C42.603,19.369 38.498,19.878 35.832,22.533 L26.992,31.373 C24.33,34.024 23.824,38.14 25.755,41.373 L35.135,57.02 L35.116,56.541 C33.997,58.8 33.04,61.104 32.277,63.381 L32.63,63.055 L14.951,67.48 C11.299,68.385 8.747,71.655 8.747,75.422 L8.747,87.915 C8.747,91.689 11.296,94.952 14.952,95.859 L32.61,100.293 L32.258,99.969 C33.038,102.259 34.009,104.563 35.138,106.8 L35.155,106.317 L25.756,121.964 C23.824,125.198 24.33,129.302 26.992,131.965 L35.831,140.804 C37.254,142.227 39.01,142.994 40.154,142.512 C41.572,141.914 41.611,139.871 40.271,136.635 L40.162,136.473 L31.323,127.644 C30.654,126.966 30.526,125.927 31.016,125.124 L40.398,109.475 C41.386,107.828 41.464,105.806 40.607,104.071 C39.614,102.084 38.759,100.043 38.059,97.995 C37.434,96.172 35.949,94.798 34.112,94.347 L16.435,89.923 C15.515,89.689 14.872,88.865 14.872,87.915 L14.872,75.422 C14.872,74.473 15.515,73.649 16.437,73.414 L34.114,68.99 C35.949,68.54 37.434,67.166 38.059,65.344 C38.734,63.34 39.59,61.301 40.606,59.269 C41.464,57.532 41.386,55.51 40.397,53.863 L31.008,38.217 C30.526,37.413 30.653,36.37 31.317,35.69 L40.152,26.865 C40.822,26.195 41.861,26.068 42.673,26.559 L58.321,35.94 C59.968,36.928 61.99,37.006 63.725,36.149 C65.769,35.132 67.809,34.275 69.8,33.602 C71.63,32.962 72.999,31.486 73.449,29.653 L77.873,11.977 C78.107,11.057 78.931,10.414 79.881,10.414 L92.374,10.414 C93.324,10.414 94.145,11.057 94.371,11.975 L98.796,29.656 C99.26,31.5 100.628,32.978 102.453,33.601 C104.434,34.275 106.474,35.132 108.529,36.149 C110.256,37.012 112.269,36.932 113.923,35.939 L129.579,26.56 C130.393,26.069 131.422,26.195 132.092,26.865 L140.931,35.694 C141.126,35.889 141.443,35.889 141.638,35.694 L145.262,32.081 C145.457,31.885 145.458,31.568 145.262,31.373 L136.423,22.534 C133.761,19.872 129.656,19.366 126.423,21.297 L110.776,30.677 L111.255,30.658 C108.976,29.529 106.673,28.572 104.414,27.819 L104.741,28.172 L100.316,10.493 C99.411,6.841 96.141,4.289 92.374,4.288 z" fill="rgba(0,0,0,0.75)" clip-path="url(#Clip_1)" filter="url(#Shadow_2)"/>
      </g>
    </g>
    <g>
      <g>
        <path d="M78.046,46.755 L78.549,46.782 C79.54,46.943 80.381,47.673 80.631,48.704 C80.972,50.076 80.131,51.467 78.759,51.808 C64.985,55.191 55.375,67.474 55.375,81.669 C55.375,93.081 61.652,103.502 71.742,108.857 C72.993,109.518 73.464,111.07 72.803,112.321 C72.343,113.192 71.462,113.682 70.541,113.682 C70.14,113.682 69.72,113.592 69.34,113.382 C57.557,107.146 50.25,94.983 50.25,81.669 C50.25,65.102 61.471,50.777 77.528,46.832 L78.046,46.755 z" fill="#6266BF"/>
        <g>
          <path d="M78.046,46.755 L78.549,46.782 C79.54,46.943 80.381,47.673 80.631,48.704 C80.972,50.076 80.131,51.467 78.759,51.808 C64.985,55.191 55.375,67.474 55.375,81.669 C55.375,93.081 61.652,103.502 71.742,108.857 C72.993,109.518 73.464,111.07 72.803,112.321 C72.343,113.192 71.462,113.682 70.541,113.682 C70.14,113.682 69.72,113.592 69.34,113.382 C57.557,107.146 50.25,94.983 50.25,81.669 C50.25,65.102 61.471,50.777 77.528,46.832 L78.046,46.755 z" fill="rgba(0,0,0,0.75)" clip-path="url(#Clip_3)" filter="url(#Shadow_4)"/>
          <path d="M78.019,47.254 L78.522,47.282 C79.285,47.408 79.948,48.009 80.145,48.822 C80.42,49.928 79.743,51.048 78.639,51.322 C64.646,54.76 54.875,67.24 54.875,81.669 C54.875,93.264 61.252,103.856 71.508,109.299 C72.513,109.83 72.894,111.078 72.361,112.088 C71.999,112.772 71.303,113.182 70.541,113.182 C70.199,113.182 69.867,113.103 69.581,112.944 C57.962,106.794 50.75,94.806 50.75,81.669 C50.75,65.334 61.812,51.208 77.647,47.318 L78.12,47.249 L78.019,47.254 z M78.073,46.256 L77.972,46.26 L77.454,46.338 C61.126,50.347 49.75,64.874 49.75,81.669 C49.75,95.176 57.167,107.505 69.106,113.824 C69.537,114.062 70.035,114.182 70.541,114.182 C71.669,114.182 72.708,113.57 73.245,112.555 C74.036,111.058 73.47,109.204 71.976,108.415 C62.048,103.146 55.875,92.894 55.875,81.669 C55.875,67.7 65.332,55.621 78.879,52.293 C80.52,51.886 81.523,50.223 81.117,48.584 C80.824,47.379 79.839,46.484 78.629,46.289 L78.073,46.256 z" fill="rgba(0,0,0,0.75)" clip-path="url(#Clip_3)" filter="url(#Shadow_4)"/>
        </g>
      </g>
      <g>
        <path d="M86.127,61.167 C97.429,61.168 106.629,70.367 106.629,81.669 C106.629,92.971 97.429,102.17 86.127,102.17 C74.825,102.17 65.626,92.971 65.626,81.669 C65.626,70.367 74.825,61.168 86.127,61.167 z M86.127,66.293 C77.648,66.293 70.751,73.19 70.751,81.669 C70.751,90.148 77.648,97.045 86.127,97.045 C94.606,97.045 101.503,90.148 101.503,81.669 C101.503,73.19 94.606,66.293 86.127,66.293 z M86.127,76.544 C88.96,76.544 91.253,78.836 91.253,81.669 C91.253,84.502 88.96,86.794 86.127,86.794 C83.294,86.794 81.002,84.502 81.002,81.669 C81.002,78.836 83.294,76.544 86.127,76.544 z" fill="#6266BF"/>
        <g>
          <path d="M86.127,61.167 C97.429,61.168 106.629,70.367 106.629,81.669 C106.629,92.971 97.429,102.17 86.127,102.17 C74.825,102.17 65.626,92.971 65.626,81.669 C65.626,70.367 74.825,61.168 86.127,61.167 z M86.127,66.293 C77.648,66.293 70.751,73.19 70.751,81.669 C70.751,90.148 77.648,97.045 86.127,97.045 C94.606,97.045 101.503,90.148 101.503,81.669 C101.503,73.19 94.606,66.293 86.127,66.293 z M86.127,76.544 C88.96,76.544 91.253,78.836 91.253,81.669 C91.253,84.502 88.96,86.794 86.127,86.794 C83.294,86.794 81.002,84.502 81.002,81.669 C81.002,78.836 83.294,76.544 86.127,76.544 z" fill="rgba(0,0,0,0.75)" clip-path="url(#Clip_5)" filter="url(#Shadow_6)"/>
          <path d="M86.127,61.667 C97.153,61.668 106.129,70.643 106.129,81.669 C106.129,92.695 97.153,101.67 86.127,101.67 C75.101,101.67 66.126,92.695 66.126,81.669 C66.126,70.643 75.101,61.668 86.127,61.667 z M86.127,60.667 C74.549,60.668 65.126,70.091 65.126,81.669 C65.126,93.247 74.549,102.67 86.127,102.67 C97.705,102.67 107.129,93.247 107.129,81.669 C107.129,70.091 97.705,60.668 86.127,60.667 z M86.127,65.793 C77.372,65.793 70.251,72.914 70.251,81.669 C70.251,90.424 77.372,97.545 86.127,97.545 C94.882,97.545 102.003,90.424 102.003,81.669 C102.003,72.914 94.882,65.793 86.127,65.793 z M86.127,66.793 C94.33,66.793 101.003,73.466 101.003,81.669 C101.003,89.872 94.33,96.545 86.127,96.545 C77.924,96.545 71.251,89.872 71.251,81.669 C71.251,73.466 77.924,66.793 86.127,66.793 z M86.127,77.044 C88.684,77.044 90.753,79.112 90.753,81.669 C90.753,84.226 88.684,86.294 86.127,86.294 C83.57,86.294 81.502,84.226 81.502,81.669 C81.502,79.112 83.57,77.044 86.127,77.044 z M86.127,76.044 C83.018,76.044 80.502,78.56 80.502,81.669 C80.502,84.778 83.018,87.294 86.127,87.294 C89.236,87.294 91.753,84.778 91.753,81.669 C91.753,78.56 89.236,76.044 86.127,76.044 z" fill="rgba(0,0,0,0.75)" clip-path="url(#Clip_5)" filter="url(#Shadow_6)"/>
        </g>
      </g>
      <g>
        <path d="M90.423,46.097 L90.932,46.112 C93.084,46.392 95.207,46.883 97.269,47.553 C98.61,47.994 99.351,49.435 98.91,50.787 C98.56,51.858 97.549,52.559 96.468,52.559 C96.208,52.559 95.947,52.508 95.687,52.428 C93.915,51.858 92.093,51.437 90.251,51.197 C88.85,51.007 87.869,49.716 88.059,48.314 C88.326,46.887 89.138,46.452 90.423,46.097 z" fill="#6266BF"/>
        <g>
          <path d="M90.423,46.097 L90.932,46.112 C93.084,46.392 95.207,46.883 97.269,47.553 C98.61,47.994 99.351,49.435 98.91,50.787 C98.56,51.858 97.549,52.559 96.468,52.559 C96.208,52.559 95.947,52.508 95.687,52.428 C93.915,51.858 92.093,51.437 90.251,51.197 C88.85,51.007 87.869,49.716 88.059,48.314 C88.326,46.887 89.138,46.452 90.423,46.097 z" fill="rgba(0,0,0,0.75)" clip-path="url(#Clip_7)" filter="url(#Shadow_8)"/>
          <path d="M90.408,46.597 L90.918,46.612 C92.959,46.88 95.051,47.358 97.114,48.029 C98.196,48.384 98.789,49.547 98.435,50.632 C98.157,51.481 97.35,52.059 96.468,52.059 C96.276,52.059 96.068,52.023 95.834,51.951 C94.009,51.363 92.159,50.942 90.316,50.701 C89.191,50.549 88.401,49.51 88.555,48.381 C88.749,47.341 89.22,46.948 90.556,46.579 L90.408,46.597 z M90.437,45.597 L90.29,45.615 C88.622,46.075 87.848,46.722 87.568,48.222 C87.336,49.922 88.509,51.465 90.184,51.693 C91.968,51.925 93.76,52.333 95.534,52.904 C95.864,53.006 96.168,53.059 96.468,53.059 C97.78,53.059 98.973,52.205 99.386,50.942 C99.911,49.331 99.031,47.606 97.425,47.078 C95.302,46.388 93.15,45.896 90.997,45.616 L90.437,45.597 z" fill="rgba(0,0,0,0.75)" clip-path="url(#Clip_7)" filter="url(#Shadow_8)"/>
        </g>
      </g>
    </g>
    <g id="paint-brush">
      <path d="M101.099,122.313 C89.421,123.808 79.062,128.946 74.029,145.238 C73.457,147.096 71.875,148.302 69.949,148.424 C66.702,148.629 56.152,141.176 53.168,139.405 C54.691,163.472 67.113,183.926 93.437,182.263 C115.608,180.862 130.038,167.108 128.627,144.773 C128.57,143.864 128.325,143.008 128.175,142.123 L101.099,122.313 z M180.398,26.535 C175.968,26.815 171.938,29.038 168.95,32.085 C112.58,89.226 106.443,90.872 107.435,106.581 C107.688,110.585 113.938,119.181 117.823,122.247 L118.436,123.065 C122.116,125.927 134.67,132.71 136.935,132.567 C155.087,131.42 164.769,117.466 193.914,53.715 C195.806,49.385 197.425,44.734 197.127,40.017 C196.594,31.568 188.614,26.016 180.398,26.535 z" fill-opacity="0" stroke="#E46161" stroke-width="7" stroke-linecap="round" stroke-linejoin="round"/>
      <g>
        <path d="M101.321,118.82 C102.808,119.203 102.217,118.924 103.166,119.488 L130.242,139.298 C130.977,139.836 131.474,140.64 131.626,141.539 C131.659,141.73 131.692,141.9 131.775,142.297 C131.781,142.325 131.781,142.325 131.786,142.354 C131.987,143.322 132.076,143.847 132.12,144.552 C133.624,168.355 118.28,184.201 93.657,185.756 C67.311,187.42 51.497,168.419 49.675,139.626 C49.497,136.819 52.536,134.959 54.954,136.395 C55.643,136.804 60.379,139.874 61.799,140.758 C62.371,141.114 62.917,141.448 63.442,141.763 C65.21,142.824 66.714,143.649 67.928,144.211 C68.549,144.499 69.072,144.708 69.475,144.831 C69.729,144.902 69.618,144.876 69.805,144.916 C70.252,144.899 70.514,144.576 70.685,144.205 C75.619,128.233 85.57,120.772 100.655,118.841 L101.321,118.82 z M100.198,125.99 C87.911,127.539 81.18,134.996 77.374,146.268 C76.375,149.513 73.552,151.703 70.17,151.917 C67.715,152.072 64.654,150.653 59.841,147.766 C59.281,147.43 58.703,147.076 58.1,146.701 L57.46,146.298 C60.742,165.95 72.297,179.596 93.216,178.77 C114.119,177.45 126.384,164.783 125.134,144.994 C125.062,144.396 125.108,144.681 125.002,144.138 L100.198,125.99 z M182.115,23.01 C191.817,23.662 199.459,29.964 200.62,39.797 C200.923,44.591 199.714,49.183 197.097,55.17 C167.028,120.944 157.074,134.802 137.155,136.06 C133.901,136.265 121.027,129.514 116.287,125.828 C116.042,125.637 115.823,125.414 115.636,125.165 L115.258,124.661 C110.385,120.116 104.845,113.636 103.942,106.802 C103.699,102.953 103.886,100.104 104.697,97.247 C106.32,91.529 110.281,86.231 120.219,75.957 C124.311,71.727 154.147,42.107 166.451,29.634 C170.209,25.803 175.063,23.365 180.178,23.042 L182.115,23.01 z M181.871,30.005 L180.619,30.028 C177.327,30.236 174.054,31.88 171.442,34.543 C159.084,47.069 129.282,76.655 125.25,80.824 C116.096,90.288 112.635,94.917 111.431,99.159 C110.869,101.139 110.731,103.238 110.928,106.36 C111.089,108.904 116.424,116.684 119.992,119.5 C120.229,119.688 120.441,119.905 120.623,120.147 L120.927,120.553 C123.741,122.568 126.805,124.197 129.842,125.843 C131.781,126.86 133.573,127.727 134.976,128.324 C135.674,128.621 136.255,128.842 136.685,128.977 C136.925,129.047 136.835,129.025 136.952,129.053 C154.413,127.375 163.3,108.053 170.48,94.393 C177.722,80.617 184.217,66.455 190.707,52.314 C192.891,47.313 193.851,43.67 193.634,40.238 C192.971,33.677 187.887,30.712 181.871,30.005 z" fill="rgba(0,0,0,0.75)" clip-path="url(#Clip_9)" filter="url(#Shadow_10)"/>
        <path d="M101.258,119.062 C101.736,119.185 102.347,119.318 102.371,119.325 C102.426,119.342 102.47,119.363 102.56,119.416 C102.601,119.439 102.904,119.623 103.038,119.703 L130.094,139.5 C130.777,139.999 131.238,140.746 131.38,141.58 C131.412,141.77 131.444,141.935 131.53,142.348 C131.534,142.366 131.534,142.366 131.536,142.376 C131.536,142.376 131.536,142.376 131.536,142.377 C131.538,142.387 131.538,142.387 131.542,142.404 C131.754,143.428 131.829,143.914 131.871,144.568 C133.353,168.031 118.342,183.946 93.642,185.507 C68.217,187.113 51.799,169.23 49.924,139.61 C49.759,137.003 52.581,135.277 54.827,136.61 C55.134,136.793 55.863,137.258 58.395,138.883 C58.398,138.885 58.398,138.885 58.401,138.887 C60.265,140.083 61.126,140.634 61.667,140.97 C62.247,141.331 62.793,141.665 63.313,141.977 C65.119,143.061 66.619,143.88 67.822,144.438 C68.446,144.727 68.982,144.942 69.402,145.07 C69.484,145.093 69.549,145.112 69.6,145.127 C69.628,145.134 69.651,145.139 69.752,145.161 C70.324,145.147 70.671,144.831 70.912,144.309 C75.679,128.885 85.179,121.074 100.687,119.089 L101.328,119.07 z M101.312,118.57 L100.647,118.591 C84.923,120.603 75.26,128.548 70.446,144.131 C70.288,144.469 70.082,144.656 69.796,144.667 C69.753,144.65 69.744,144.648 69.73,144.644 C69.69,144.632 69.624,144.613 69.543,144.59 C69.153,144.471 68.638,144.265 68.033,143.985 C66.847,143.435 65.362,142.624 63.57,141.549 C63.052,141.238 62.509,140.905 61.931,140.546 C61.394,140.211 60.532,139.661 58.671,138.466 C58.668,138.464 58.668,138.464 58.665,138.462 C56.116,136.826 55.398,136.367 55.082,136.18 C52.49,134.642 49.235,136.634 49.425,139.642 C51.316,169.517 67.946,187.631 93.673,186.006 C118.642,184.428 133.87,168.282 132.37,144.537 C132.327,143.855 132.248,143.348 132.031,142.303 C132.028,142.286 132.028,142.286 132.025,142.275 C132.025,142.274 132.025,142.274 132.025,142.274 C132.023,142.263 132.023,142.263 132.019,142.246 C131.935,141.839 131.903,141.679 131.873,141.497 C131.71,140.534 131.178,139.673 130.389,139.096 L103.314,119.286 C103.163,119.196 102.858,119.01 102.812,118.984 C102.692,118.914 102.616,118.877 102.519,118.847 C102.471,118.832 101.842,118.696 101.383,118.578 z M100.166,125.742 C88.479,127.216 81.253,133.996 77.137,146.188 C76.17,149.329 73.445,151.46 70.154,151.667 C67.92,151.809 65.135,150.65 59.969,147.551 C59.418,147.221 58.841,146.868 58.232,146.488 L57.593,146.086 C57.41,145.971 57.177,146.126 57.213,146.339 C60.753,167.53 73.345,179.805 93.226,179.02 C114.383,177.683 126.636,164.804 125.384,144.978 C125.368,144.844 125.335,144.553 125.328,144.508 C125.32,144.454 125.241,144.057 125.248,144.09 L125.15,143.936 L100.345,125.788 L100.166,125.742 z M100.229,126.238 L100.05,126.192 L124.855,144.34 L124.757,144.186 C124.755,144.176 124.827,144.541 124.833,144.583 C124.839,144.618 124.87,144.894 124.886,145.024 C126.119,164.551 114.084,177.201 93.2,178.52 C73.598,179.295 61.207,167.216 57.706,146.256 L57.326,146.509 L57.966,146.912 C58.579,147.294 59.158,147.648 59.712,147.98 C64.965,151.131 67.814,152.316 70.186,152.166 C73.683,151.946 76.587,149.676 77.613,146.341 C81.67,134.327 88.746,127.686 100.229,126.238 z M182.098,23.259 C191.957,23.922 199.254,30.366 200.372,39.826 C200.658,44.359 199.602,48.814 196.868,55.07 C166.624,121.226 156.78,134.57 137.14,135.81 C134.205,135.996 121.629,129.666 116.441,125.63 C116.213,125.453 116.01,125.246 115.836,125.015 L115.459,124.511 C109.109,118.585 104.959,112.593 104.19,106.769 C103.944,102.858 104.155,100.071 104.937,97.315 C106.521,91.736 110.325,86.545 120.399,76.131 C121.509,74.983 124.495,71.983 129.741,66.74 C132.565,63.917 144.159,52.342 145.919,50.584 C145.978,50.526 145.978,50.526 146.036,50.468 C155.796,40.718 162.286,34.213 166.629,29.81 C170.42,25.945 175.236,23.604 180.193,23.291 L182.119,23.26 z M182.111,22.76 L180.173,22.792 C175.077,23.113 170.146,25.51 166.273,29.459 C161.931,33.86 155.442,40.365 145.682,50.114 C145.624,50.172 145.624,50.172 145.566,50.23 C143.806,51.989 132.212,63.563 129.387,66.386 C124.139,71.632 121.152,74.632 120.039,75.783 C109.912,86.253 106.069,91.496 104.456,97.179 C103.657,99.995 103.441,102.836 103.693,106.817 C104.483,112.803 108.69,118.878 115.088,124.844 L115.436,125.315 C115.636,125.582 115.871,125.821 116.134,126.025 C121.413,130.131 134.076,136.505 137.171,136.309 C157.085,135.051 166.993,121.621 197.324,55.274 C200.089,48.947 201.163,44.419 200.87,39.781 C199.722,30.06 192.224,23.439 182.132,22.76 z M181.867,29.755 L180.614,29.778 C177.275,29.989 173.94,31.638 171.263,34.368 C166.914,38.776 160.425,45.282 150.734,54.962 C150.675,55.022 150.675,55.022 150.615,55.081 C148.602,57.091 137.166,68.509 134.408,71.265 C129.147,76.523 126.169,79.514 125.071,80.65 C115.939,90.09 112.416,94.771 111.19,99.09 C110.624,101.086 110.478,103.202 110.679,106.376 C110.846,109.02 116.24,116.857 119.837,119.696 C120.057,119.871 120.254,120.073 120.423,120.297 L120.727,120.703 C122.923,122.29 124.904,123.452 128.794,125.56 C129.061,125.705 129.061,125.705 129.328,125.849 C129.525,125.956 129.525,125.956 129.723,126.063 C131.682,127.091 133.476,127.958 134.878,128.554 C135.576,128.851 136.167,129.077 136.611,129.215 C136.704,129.242 136.751,129.257 136.792,129.27 C136.831,129.281 136.831,129.281 136.894,129.296 C148.454,128.199 156.642,120.187 165.064,105.14 C165.979,103.504 166.89,101.81 167.997,99.696 C168.385,98.956 170.21,95.444 170.701,94.51 C176.499,83.481 181.205,73.612 189.928,54.61 C190.201,54.015 190.431,53.514 190.934,52.418 C193.203,47.226 194.098,43.607 193.884,40.222 C193.263,34.073 188.786,30.566 181.9,29.757 z M181.842,30.254 C188.517,31.038 192.792,34.387 193.385,40.263 C193.593,43.545 192.715,47.092 190.478,52.214 C189.976,53.306 189.747,53.806 189.473,54.402 C180.754,73.396 176.051,83.259 170.259,94.277 C169.767,95.213 167.941,98.725 167.554,99.464 C166.449,101.574 165.54,103.265 164.627,104.896 C156.279,119.813 148.196,127.721 136.928,128.804 C136.95,128.795 136.95,128.795 136.938,128.791 C136.897,128.779 136.847,128.764 136.756,128.737 C136.335,128.605 135.758,128.385 135.074,128.094 C133.686,127.504 131.903,126.642 129.958,125.622 C129.764,125.517 129.764,125.517 129.566,125.41 C129.299,125.265 129.299,125.265 129.032,125.12 C125.16,123.022 123.192,121.867 121.073,120.35 L120.823,119.997 C120.628,119.738 120.401,119.505 120.146,119.304 C116.651,116.544 111.334,108.82 111.178,106.345 C110.981,103.222 111.123,101.16 111.671,99.227 C112.867,95.014 116.355,90.38 125.43,80.997 C126.526,79.864 129.503,76.874 134.761,71.619 C137.519,68.862 148.956,57.445 150.968,55.435 C151.028,55.375 151.028,55.375 151.088,55.315 C160.779,45.635 167.269,39.129 171.62,34.718 C174.214,32.073 177.436,30.479 180.635,30.277 L181.876,30.255 z" fill="rgba(0,0,0,0.75)" clip-path="url(#Clip_9)" filter="url(#Shadow_10)"/>
      </g>
    </g>
  </g>
</svg>
