<?xml version="1.0" encoding="UTF-8"?>
<!DOCTYPE svg PUBLIC "-//W3C//DTD SVG 1.1//EN" "http://www.w3.org/Graphics/SVG/1.1/DTD/svg11.dtd">
<svg version="1.1" xmlns="http://www.w3.org/2000/svg" xmlns:xlink="http://www.w3.org/1999/xlink" x="0" y="0" width="500" height="500" viewBox="0, 0, 500, 500">
  <g id="Background">
    <rect x="0" y="0" width="500" height="500" fill="#FFFFFF" fill-opacity="0"/>
  </g>
  <g id="Layer_1">
    <path d="M399.897,168.042 C413.231,192.372 420.819,220.293 420.819,249.993 C420.819,313.014 386.666,368.036 335.881,397.645 L388.055,246.792 C397.8,222.422 401.045,202.936 401.045,185.608 C401.045,179.319 400.631,173.483 399.897,168.042 M273.541,169.902 C283.825,169.361 293.092,168.279 293.092,168.279 C302.296,167.19 301.21,153.662 292.002,154.201 C292.002,154.201 264.332,156.373 246.47,156.373 C229.686,156.373 201.482,154.201 201.482,154.201 C192.269,153.662 191.19,167.734 200.398,168.279 C200.398,168.279 209.112,169.361 218.316,169.902 L244.928,242.823 L207.54,354.939 L145.337,169.902 C155.629,169.361 164.885,168.279 164.885,168.279 C174.084,167.19 172.998,153.662 163.794,154.201 C163.794,154.201 136.13,156.373 118.266,156.373 C115.061,156.373 111.284,156.294 107.273,156.166 C137.817,109.794 190.317,79.171 249.999,79.171 C294.469,79.171 334.962,96.174 365.352,124.021 C364.616,123.976 363.898,123.884 363.14,123.884 C346.36,123.884 334.453,138.501 334.453,154.201 C334.453,168.279 342.576,180.19 351.233,194.266 C357.729,205.644 365.317,220.259 365.317,241.378 C365.317,255.997 359.694,272.964 352.319,296.6 L335.275,353.529 z M249.999,420.829 C233.231,420.829 217.048,418.37 201.739,413.869 L252.999,264.936 L305.503,408.79 C305.849,409.634 306.273,410.412 306.725,411.144 C288.97,417.395 269.892,420.829 249.999,420.829 M79.177,249.993 C79.177,225.227 84.489,201.717 93.969,180.473 L175.455,403.731 C118.465,376.046 79.177,317.608 79.177,249.993 M249.999,60 C145.234,60 60.002,145.23 60.002,249.993 C60.002,354.76 145.234,440 249.999,440 C354.762,440 439.998,354.76 439.998,249.993 C439.998,145.23 354.762,60 249.999,60" fill="#00749C"/>
  </g>
</svg>
