<?xml version="1.0" encoding="UTF-8"?>
<!DOCTYPE svg PUBLIC "-//W3C//DTD SVG 1.1//EN" "http://www.w3.org/Graphics/SVG/1.1/DTD/svg11.dtd">
<svg version="1.1" xmlns="http://www.w3.org/2000/svg" xmlns:xlink="http://www.w3.org/1999/xlink" x="0" y="0" width="1280" height="1280" viewBox="0, 0, 1280, 1280">
  <g id="Background">
    <rect x="0" y="0" width="1280" height="1280" fill="#FFFFFF"/>
  </g>
  <defs>
    <linearGradient id="Gradient_1" gradientUnits="userSpaceOnUse" x1="640" y1="654.729" x2="640" y2="1280">
      <stop offset="0" stop-color="#FFFFFF"/>
      <stop offset="0" stop-color="#F3F0FF"/>
      <stop offset="1" stop-color="#FFFFFF"/>
    </linearGradient>
  </defs>
  <g id="Layer_1">
    <path d="M0,0 L1280,0 L1280,1280 L0,1280 L0,0 z" fill="#FFFFFF"/>
    <path d="M0,1280 C124.415,998.601 529.051,1111.585 759.524,1016.661 C961.46,933.49 931.283,691.583 1280,654.729 L1280,1280 L0,1280" fill="url(#Gradient_1)"/>
    <path d="M256.552,558.68 C197.587,558.68 149.786,510.879 149.786,451.914 C149.786,392.948 197.587,345.147 256.552,345.147 C315.518,345.147 363.319,392.948 363.319,451.914 C363.319,510.879 315.518,558.68 256.552,558.68 z" fill="#F9F9FF"/>
    <path d="M590.994,953.86 C561.59,953.86 537.753,930.023 537.753,900.619 C537.753,871.215 561.59,847.378 590.994,847.378 C620.398,847.378 644.235,871.215 644.235,900.619 C644.235,930.023 620.398,953.86 590.994,953.86 z" fill="#F9F9FF"/>
    <path d="M1045.74,353.34 C1002.061,353.34 966.653,317.932 966.653,274.254 C966.653,230.576 1002.061,195.168 1045.74,195.168 C1089.418,195.168 1124.826,230.576 1124.826,274.254 C1124.826,317.932 1089.418,353.34 1045.74,353.34 z" fill="#F9F9FF"/>
    <path d="M179.443,969.962 C135.765,969.962 100.357,934.554 100.357,890.876 C100.357,847.197 135.765,811.789 179.443,811.789 C223.121,811.789 258.529,847.197 258.529,890.876 C258.529,934.554 223.121,969.962 179.443,969.962 z" fill="#F9F9FF"/>
    <path d="M185.853,190.757 C83.209,190.757 0,107.548 0,4.904 C0,-97.74 83.209,-180.949 185.853,-180.949 C288.496,-180.949 371.705,-97.74 371.705,4.904 C371.705,107.548 288.496,190.757 185.853,190.757 z" fill="#F9F9FF"/>
    <path d="M690.075,631.669 C646.396,631.669 610.988,596.261 610.988,552.583 C610.988,508.904 646.396,473.496 690.075,473.496 C733.753,473.496 769.161,508.904 769.161,552.583 C769.161,596.261 733.753,631.669 690.075,631.669 z" fill="#F9F9FF"/>
  </g>
</svg>
